<?xml version="1.0" encoding="UTF-8" standalone="no"?>
<!DOCTYPE svg PUBLIC "-//W3C//DTD SVG 1.1//EN"
 "http://www.w3.org/Graphics/SVG/1.1/DTD/svg11.dtd">
<!-- Generated by graphviz version 2.42.4 (0)
 -->
<!-- Pages: 1 -->
<svg width="521pt" height="137pt"
 viewBox="0.00 0.00 520.67 137.00" xmlns="http://www.w3.org/2000/svg" xmlns:xlink="http://www.w3.org/1999/xlink">
<g id="graph0" class="graph" transform="scale(1 1) rotate(0) translate(4 133)">
<g id="clust1" class="cluster">
<title>cluster_nginx_docker</title>
<polygon fill="transparent" stroke="black" points="125.49,-46 125.49,-121 337.38,-121 337.38,-46 125.49,-46"/>
<text text-anchor="middle" x="231.43" y="-105.8" font-family="Times,serif" font-size="14.00">t2.nano</text>
</g>
<g id="clust2" class="cluster">
<title>cluster_postgresql</title>
<polygon fill="transparent" stroke="black" points="357.38,-46 357.38,-121 504.67,-121 504.67,-46 357.38,-46"/>
<text text-anchor="middle" x="431.02" y="-105.8" font-family="Times,serif" font-size="14.00">t2.nano</text>
</g>
<!-- nginx -->
<g id="node1" class="node">
<title>nginx</title>
<ellipse fill="none" stroke="black" cx="169.89" cy="-72" rx="36.29" ry="18"/>
<text text-anchor="middle" x="169.89" y="-68.3" font-family="Times,serif" font-size="14.00">nginx</text>
</g>
<!-- Docker -->
<g id="node2" class="node">
<title>Docker</title>
<ellipse fill="none" stroke="black" cx="285.83" cy="-72" rx="43.59" ry="18"/>
<text text-anchor="middle" x="285.83" y="-68.3" font-family="Times,serif" font-size="14.00">Docker</text>
</g>
<!-- nginx&#45;&gt;Docker -->
<g id="edge1" class="edge">
<title>nginx&#45;&gt;Docker</title>
<path fill="none" stroke="black" d="M206.32,-72C214.49,-72 223.35,-72 232.08,-72"/>
<polygon fill="black" stroke="black" points="232.22,-75.5 242.22,-72 232.22,-68.5 232.22,-75.5"/>
</g>
<!-- PostgreSQL -->
<g id="node3" class="node">
<title>PostgreSQL</title>
<ellipse fill="none" stroke="black" cx="431.02" cy="-72" rx="65.79" ry="18"/>
<text text-anchor="middle" x="431.02" y="-68.3" font-family="Times,serif" font-size="14.00">PostgreSQL</text>
</g>
<!-- Docker&#45;&gt;PostgreSQL -->
<g id="edge2" class="edge">
<title>Docker&#45;&gt;PostgreSQL</title>
<path fill="none" stroke="black" d="M329.41,-72C337.61,-72 346.43,-72 355.31,-72"/>
<polygon fill="black" stroke="black" points="355.34,-75.5 365.34,-72 355.34,-68.5 355.34,-75.5"/>
</g>
<!-- Internet -->
<g id="node4" class="node">
<title>Internet</title>
<ellipse fill="none" stroke="black" cx="48.75" cy="-45" rx="48.99" ry="18"/>
<text text-anchor="middle" x="48.75" y="-41.3" font-family="Times,serif" font-size="14.00">Internet</text>
</g>
<!-- Internet&#45;&gt;nginx -->
<g id="edge3" class="edge">
<title>Internet&#45;&gt;nginx</title>
<path fill="none" stroke="black" d="M90.75,-54.29C102.31,-56.91 114.9,-59.77 126.53,-62.4"/>
<polygon fill="black" stroke="black" points="125.94,-65.85 136.46,-64.65 127.48,-59.03 125.94,-65.85"/>
</g>
<!-- S3 -->
<g id="node5" class="node">
<title>S3</title>
<ellipse fill="none" stroke="black" cx="169.89" cy="-18" rx="27" ry="18"/>
<text text-anchor="middle" x="169.89" y="-14.3" font-family="Times,serif" font-size="14.00">S3</text>
</g>
<!-- Internet&#45;&gt;S3 -->
<g id="edge4" class="edge">
<title>Internet&#45;&gt;S3</title>
<path fill="none" stroke="black" d="M90.75,-35.71C104.91,-32.5 120.62,-28.94 134.23,-25.85"/>
<polygon fill="black" stroke="black" points="135.18,-29.23 144.16,-23.6 133.63,-22.4 135.18,-29.23"/>
</g>
</g>
</svg>
