<?xml version="1.0" encoding="UTF-8" standalone="no"?>
<!DOCTYPE svg PUBLIC "-//W3C//DTD SVG 1.1//EN"
 "http://www.w3.org/Graphics/SVG/1.1/DTD/svg11.dtd">
<!-- Generated by graphviz version 2.42.4 (0)
 -->
<!-- Pages: 1 -->
<svg width="927pt" height="620pt"
 viewBox="0.00 0.00 927.09 620.00" xmlns="http://www.w3.org/2000/svg" xmlns:xlink="http://www.w3.org/1999/xlink">
<g id="graph0" class="graph" transform="scale(1 1) rotate(0) translate(4 616)">
<!-- Heat oven -->
<g id="node1" class="node">
<title>Heat oven</title>
<ellipse fill="none" stroke="black" cx="57.84" cy="-594" rx="57.69" ry="18"/>
<text text-anchor="middle" x="57.84" y="-590.3" font-family="Times,serif" font-size="14.00">Heat oven</text>
</g>
<!-- Bake -->
<g id="node2" class="node">
<title>Bake</title>
<ellipse fill="none" stroke="black" cx="223.84" cy="-18" rx="33.6" ry="18"/>
<text text-anchor="middle" x="223.84" y="-14.3" font-family="Times,serif" font-size="14.00">Bake</text>
</g>
<!-- Heat oven&#45;&gt;Bake -->
<g id="edge1" class="edge">
<title>Heat oven&#45;&gt;Bake</title>
<path fill="none" stroke="black" d="M57.84,-575.95C57.84,-549.29 57.84,-496.11 57.84,-451 57.84,-451 57.84,-451 57.84,-161 57.84,-93.8 137.37,-51.6 186.33,-31.98"/>
<polygon fill="black" stroke="black" points="187.62,-35.23 195.69,-28.36 185.1,-28.71 187.62,-35.23"/>
</g>
<!-- Defrost bananas -->
<g id="node3" class="node">
<title>Defrost bananas</title>
<ellipse fill="none" stroke="black" cx="220.84" cy="-594" rx="87.18" ry="18"/>
<text text-anchor="middle" x="220.84" y="-590.3" font-family="Times,serif" font-size="14.00">Defrost bananas</text>
</g>
<!-- Peel bananas -->
<g id="node4" class="node">
<title>Peel bananas</title>
<ellipse fill="none" stroke="black" cx="220.84" cy="-522" rx="71.49" ry="18"/>
<text text-anchor="middle" x="220.84" y="-518.3" font-family="Times,serif" font-size="14.00">Peel bananas</text>
</g>
<!-- Defrost bananas&#45;&gt;Peel bananas -->
<g id="edge2" class="edge">
<title>Defrost bananas&#45;&gt;Peel bananas</title>
<path fill="none" stroke="black" d="M220.84,-575.7C220.84,-567.98 220.84,-558.71 220.84,-550.11"/>
<polygon fill="black" stroke="black" points="224.34,-550.1 220.84,-540.1 217.34,-550.1 224.34,-550.1"/>
</g>
<!-- Microwave bananas -->
<g id="node5" class="node">
<title>Microwave bananas</title>
<ellipse fill="none" stroke="black" cx="220.84" cy="-450" rx="102.88" ry="18"/>
<text text-anchor="middle" x="220.84" y="-446.3" font-family="Times,serif" font-size="14.00">Microwave bananas</text>
</g>
<!-- Peel bananas&#45;&gt;Microwave bananas -->
<g id="edge3" class="edge">
<title>Peel bananas&#45;&gt;Microwave bananas</title>
<path fill="none" stroke="black" d="M220.84,-503.7C220.84,-495.98 220.84,-486.71 220.84,-478.11"/>
<polygon fill="black" stroke="black" points="224.34,-478.1 220.84,-468.1 217.34,-478.1 224.34,-478.1"/>
</g>
<!-- Drain bananas -->
<g id="node6" class="node">
<title>Drain bananas</title>
<ellipse fill="none" stroke="black" cx="220.84" cy="-378" rx="77.99" ry="18"/>
<text text-anchor="middle" x="220.84" y="-374.3" font-family="Times,serif" font-size="14.00">Drain bananas</text>
</g>
<!-- Microwave bananas&#45;&gt;Drain bananas -->
<g id="edge4" class="edge">
<title>Microwave bananas&#45;&gt;Drain bananas</title>
<path fill="none" stroke="black" d="M220.84,-431.7C220.84,-423.98 220.84,-414.71 220.84,-406.11"/>
<polygon fill="black" stroke="black" points="224.34,-406.1 220.84,-396.1 217.34,-406.1 224.34,-406.1"/>
</g>
<!-- Mix wet ingredients -->
<g id="node7" class="node">
<title>Mix wet ingredients</title>
<ellipse fill="none" stroke="black" cx="420.84" cy="-234" rx="104.78" ry="18"/>
<text text-anchor="middle" x="420.84" y="-230.3" font-family="Times,serif" font-size="14.00">Mix wet ingredients</text>
</g>
<!-- Drain bananas&#45;&gt;Mix wet ingredients -->
<g id="edge5" class="edge">
<title>Drain bananas&#45;&gt;Mix wet ingredients</title>
<path fill="none" stroke="black" d="M179.35,-362.73C161.72,-354.36 142.94,-341.86 132.84,-324 124.97,-310.07 122.61,-300.29 132.84,-288 155.72,-260.53 240.38,-247.25 312.04,-240.85"/>
<polygon fill="black" stroke="black" points="312.39,-244.34 322.05,-240 311.79,-237.36 312.39,-244.34"/>
</g>
<!-- Reduce banana liquid -->
<g id="node8" class="node">
<title>Reduce banana liquid</title>
<ellipse fill="none" stroke="black" cx="251.84" cy="-306" rx="110.48" ry="18"/>
<text text-anchor="middle" x="251.84" y="-302.3" font-family="Times,serif" font-size="14.00">Reduce banana liquid</text>
</g>
<!-- Drain bananas&#45;&gt;Reduce banana liquid -->
<g id="edge6" class="edge">
<title>Drain bananas&#45;&gt;Reduce banana liquid</title>
<path fill="none" stroke="black" d="M228.35,-360.05C231.88,-352.09 236.16,-342.41 240.1,-333.51"/>
<polygon fill="black" stroke="black" points="243.35,-334.84 244.19,-324.28 236.94,-332 243.35,-334.84"/>
</g>
<!-- Mix batter -->
<g id="node14" class="node">
<title>Mix batter</title>
<ellipse fill="none" stroke="black" cx="420.84" cy="-162" rx="59.59" ry="18"/>
<text text-anchor="middle" x="420.84" y="-158.3" font-family="Times,serif" font-size="14.00">Mix batter</text>
</g>
<!-- Mix wet ingredients&#45;&gt;Mix batter -->
<g id="edge18" class="edge">
<title>Mix wet ingredients&#45;&gt;Mix batter</title>
<path fill="none" stroke="black" d="M420.84,-215.7C420.84,-207.98 420.84,-198.71 420.84,-190.11"/>
<polygon fill="black" stroke="black" points="424.34,-190.1 420.84,-180.1 417.34,-190.1 424.34,-190.1"/>
</g>
<!-- Reduce banana liquid&#45;&gt;Mix wet ingredients -->
<g id="edge7" class="edge">
<title>Reduce banana liquid&#45;&gt;Mix wet ingredients</title>
<path fill="none" stroke="black" d="M290.19,-289.12C314.83,-278.91 347.01,-265.58 373.27,-254.71"/>
<polygon fill="black" stroke="black" points="374.75,-257.88 382.65,-250.82 372.07,-251.41 374.75,-257.88"/>
</g>
<!-- Melt butter -->
<g id="node9" class="node">
<title>Melt butter</title>
<ellipse fill="none" stroke="black" cx="389.84" cy="-594" rx="64.19" ry="18"/>
<text text-anchor="middle" x="389.84" y="-590.3" font-family="Times,serif" font-size="14.00">Melt butter</text>
</g>
<!-- Melt butter&#45;&gt;Mix wet ingredients -->
<g id="edge8" class="edge">
<title>Melt butter&#45;&gt;Mix wet ingredients</title>
<path fill="none" stroke="black" d="M389.84,-575.95C389.84,-549.29 389.84,-496.11 389.84,-451 389.84,-451 389.84,-451 389.84,-377 389.84,-336.1 402.27,-290.06 411.39,-261.79"/>
<polygon fill="black" stroke="black" points="414.74,-262.82 414.57,-252.22 408.1,-260.61 414.74,-262.82"/>
</g>
<!-- Flour -->
<g id="node10" class="node">
<title>Flour</title>
<ellipse fill="none" stroke="black" cx="653.84" cy="-594" rx="36" ry="18"/>
<text text-anchor="middle" x="653.84" y="-590.3" font-family="Times,serif" font-size="14.00">Flour</text>
</g>
<!-- Mix dry ingredients -->
<g id="node11" class="node">
<title>Mix dry ingredients</title>
<ellipse fill="none" stroke="black" cx="774.84" cy="-522" rx="102.88" ry="18"/>
<text text-anchor="middle" x="774.84" y="-518.3" font-family="Times,serif" font-size="14.00">Mix dry ingredients</text>
</g>
<!-- Flour&#45;&gt;Mix dry ingredients -->
<g id="edge9" class="edge">
<title>Flour&#45;&gt;Mix dry ingredients</title>
<path fill="none" stroke="black" d="M676.32,-580C693.51,-570.05 717.58,-556.13 737.63,-544.53"/>
<polygon fill="black" stroke="black" points="739.61,-547.42 746.52,-539.39 736.11,-541.37 739.61,-547.42"/>
</g>
<!-- Mix dry ingredients&#45;&gt;Mix batter -->
<g id="edge12" class="edge">
<title>Mix dry ingredients&#45;&gt;Mix batter</title>
<path fill="none" stroke="black" d="M774.84,-503.95C774.84,-477.29 774.84,-424.11 774.84,-379 774.84,-379 774.84,-379 774.84,-305 774.84,-242.34 581.38,-194.72 480.5,-174.15"/>
<polygon fill="black" stroke="black" points="480.93,-170.67 470.44,-172.12 479.55,-177.53 480.93,-170.67"/>
</g>
<!-- Baking soda -->
<g id="node12" class="node">
<title>Baking soda</title>
<ellipse fill="none" stroke="black" cx="774.84" cy="-594" rx="67.69" ry="18"/>
<text text-anchor="middle" x="774.84" y="-590.3" font-family="Times,serif" font-size="14.00">Baking soda</text>
</g>
<!-- Baking soda&#45;&gt;Mix dry ingredients -->
<g id="edge10" class="edge">
<title>Baking soda&#45;&gt;Mix dry ingredients</title>
<path fill="none" stroke="black" d="M774.84,-575.7C774.84,-567.98 774.84,-558.71 774.84,-550.11"/>
<polygon fill="black" stroke="black" points="778.34,-550.1 774.84,-540.1 771.34,-550.1 778.34,-550.1"/>
</g>
<!-- Salt -->
<g id="node13" class="node">
<title>Salt</title>
<ellipse fill="none" stroke="black" cx="889.84" cy="-594" rx="29.5" ry="18"/>
<text text-anchor="middle" x="889.84" y="-590.3" font-family="Times,serif" font-size="14.00">Salt</text>
</g>
<!-- Salt&#45;&gt;Mix dry ingredients -->
<g id="edge11" class="edge">
<title>Salt&#45;&gt;Mix dry ingredients</title>
<path fill="none" stroke="black" d="M869.81,-580.81C853.52,-570.89 830.11,-556.64 810.61,-544.77"/>
<polygon fill="black" stroke="black" points="812.33,-541.72 801.97,-539.51 808.69,-547.7 812.33,-541.72"/>
</g>
<!-- Assemble in pan -->
<g id="node15" class="node">
<title>Assemble in pan</title>
<ellipse fill="none" stroke="black" cx="337.84" cy="-90" rx="87.18" ry="18"/>
<text text-anchor="middle" x="337.84" y="-86.3" font-family="Times,serif" font-size="14.00">Assemble in pan</text>
</g>
<!-- Mix batter&#45;&gt;Assemble in pan -->
<g id="edge13" class="edge">
<title>Mix batter&#45;&gt;Assemble in pan</title>
<path fill="none" stroke="black" d="M401.59,-144.76C390.86,-135.71 377.29,-124.27 365.44,-114.28"/>
<polygon fill="black" stroke="black" points="367.47,-111.4 357.57,-107.63 362.96,-116.76 367.47,-111.4"/>
</g>
<!-- Assemble in pan&#45;&gt;Bake -->
<g id="edge14" class="edge">
<title>Assemble in pan&#45;&gt;Bake</title>
<path fill="none" stroke="black" d="M311.4,-72.76C294.26,-62.24 271.89,-48.5 254.05,-37.55"/>
<polygon fill="black" stroke="black" points="255.54,-34.35 245.19,-32.1 251.88,-40.32 255.54,-34.35"/>
</g>
<!-- Eggs -->
<g id="node16" class="node">
<title>Eggs</title>
<ellipse fill="none" stroke="black" cx="451.84" cy="-306" rx="34.39" ry="18"/>
<text text-anchor="middle" x="451.84" y="-302.3" font-family="Times,serif" font-size="14.00">Eggs</text>
</g>
<!-- Eggs&#45;&gt;Mix wet ingredients -->
<g id="edge15" class="edge">
<title>Eggs&#45;&gt;Mix wet ingredients</title>
<path fill="none" stroke="black" d="M444.5,-288.41C440.92,-280.34 436.54,-270.43 432.52,-261.35"/>
<polygon fill="black" stroke="black" points="435.6,-259.68 428.35,-251.96 429.2,-262.52 435.6,-259.68"/>
</g>
<!-- Brown sugar -->
<g id="node17" class="node">
<title>Brown sugar</title>
<ellipse fill="none" stroke="black" cx="574.84" cy="-306" rx="70.39" ry="18"/>
<text text-anchor="middle" x="574.84" y="-302.3" font-family="Times,serif" font-size="14.00">Brown sugar</text>
</g>
<!-- Brown sugar&#45;&gt;Mix wet ingredients -->
<g id="edge16" class="edge">
<title>Brown sugar&#45;&gt;Mix wet ingredients</title>
<path fill="none" stroke="black" d="M541.81,-289.98C519.49,-279.84 489.77,-266.33 465.37,-255.24"/>
<polygon fill="black" stroke="black" points="466.52,-251.92 455.97,-250.97 463.62,-258.29 466.52,-251.92"/>
</g>
<!-- Vanilla -->
<g id="node18" class="node">
<title>Vanilla</title>
<ellipse fill="none" stroke="black" cx="704.84" cy="-306" rx="42.49" ry="18"/>
<text text-anchor="middle" x="704.84" y="-302.3" font-family="Times,serif" font-size="14.00">Vanilla</text>
</g>
<!-- Vanilla&#45;&gt;Mix wet ingredients -->
<g id="edge17" class="edge">
<title>Vanilla&#45;&gt;Mix wet ingredients</title>
<path fill="none" stroke="black" d="M673.16,-293.9C666.8,-291.83 660.14,-289.76 653.84,-288 601.64,-273.4 542.03,-259.9 496.17,-250.17"/>
<polygon fill="black" stroke="black" points="496.81,-246.73 486.31,-248.1 495.37,-253.58 496.81,-246.73"/>
</g>
</g>
</svg>
