<?xml version="1.0" encoding="UTF-8" standalone="no"?>
<!DOCTYPE svg PUBLIC "-//W3C//DTD SVG 1.1//EN"
 "http://www.w3.org/Graphics/SVG/1.1/DTD/svg11.dtd">
<!-- Generated by graphviz version 2.42.4 (0)
 -->
<!-- Pages: 1 -->
<svg width="1104pt" height="620pt"
 viewBox="0.00 0.00 1103.94 620.00" xmlns="http://www.w3.org/2000/svg" xmlns:xlink="http://www.w3.org/1999/xlink">
<g id="graph0" class="graph" transform="scale(1 1) rotate(0) translate(4 616)">
<!-- Heat oven -->
<g id="node1" class="node">
<title>Heat oven</title>
<ellipse fill="none" stroke="black" cx="492.69" cy="-90" rx="57.69" ry="18"/>
<text text-anchor="middle" x="492.69" y="-86.3" font-family="Times,serif" font-size="14.00">Heat oven</text>
</g>
<!-- Bake -->
<g id="node2" class="node">
<title>Bake</title>
<ellipse fill="none" stroke="black" cx="573.69" cy="-18" rx="33.6" ry="18"/>
<text text-anchor="middle" x="573.69" y="-14.3" font-family="Times,serif" font-size="14.00">Bake</text>
</g>
<!-- Heat oven&#45;&gt;Bake -->
<g id="edge1" class="edge">
<title>Heat oven&#45;&gt;Bake</title>
<path fill="none" stroke="black" d="M511.48,-72.76C522.57,-63.18 536.74,-50.94 548.75,-40.55"/>
<polygon fill="black" stroke="black" points="551.38,-42.9 556.66,-33.72 546.81,-37.61 551.38,-42.9"/>
</g>
<!-- Defrost bananas -->
<g id="node3" class="node">
<title>Defrost bananas</title>
<ellipse fill="none" stroke="black" cx="102.69" cy="-594" rx="87.18" ry="18"/>
<text text-anchor="middle" x="102.69" y="-590.3" font-family="Times,serif" font-size="14.00">Defrost bananas</text>
</g>
<!-- Peel bananas -->
<g id="node4" class="node">
<title>Peel bananas</title>
<ellipse fill="none" stroke="black" cx="102.69" cy="-522" rx="71.49" ry="18"/>
<text text-anchor="middle" x="102.69" y="-518.3" font-family="Times,serif" font-size="14.00">Peel bananas</text>
</g>
<!-- Defrost bananas&#45;&gt;Peel bananas -->
<g id="edge2" class="edge">
<title>Defrost bananas&#45;&gt;Peel bananas</title>
<path fill="none" stroke="black" d="M102.69,-575.7C102.69,-567.98 102.69,-558.71 102.69,-550.11"/>
<polygon fill="black" stroke="black" points="106.19,-550.1 102.69,-540.1 99.19,-550.1 106.19,-550.1"/>
</g>
<!-- Microwave bananas -->
<g id="node5" class="node">
<title>Microwave bananas</title>
<ellipse fill="none" stroke="black" cx="102.69" cy="-450" rx="102.88" ry="18"/>
<text text-anchor="middle" x="102.69" y="-446.3" font-family="Times,serif" font-size="14.00">Microwave bananas</text>
</g>
<!-- Peel bananas&#45;&gt;Microwave bananas -->
<g id="edge3" class="edge">
<title>Peel bananas&#45;&gt;Microwave bananas</title>
<path fill="none" stroke="black" d="M102.69,-503.7C102.69,-495.98 102.69,-486.71 102.69,-478.11"/>
<polygon fill="black" stroke="black" points="106.19,-478.1 102.69,-468.1 99.19,-478.1 106.19,-478.1"/>
</g>
<!-- Drain bananas -->
<g id="node6" class="node">
<title>Drain bananas</title>
<ellipse fill="none" stroke="black" cx="102.69" cy="-378" rx="77.99" ry="18"/>
<text text-anchor="middle" x="102.69" y="-374.3" font-family="Times,serif" font-size="14.00">Drain bananas</text>
</g>
<!-- Microwave bananas&#45;&gt;Drain bananas -->
<g id="edge4" class="edge">
<title>Microwave bananas&#45;&gt;Drain bananas</title>
<path fill="none" stroke="black" d="M102.69,-431.7C102.69,-423.98 102.69,-414.71 102.69,-406.11"/>
<polygon fill="black" stroke="black" points="106.19,-406.1 102.69,-396.1 99.19,-406.1 106.19,-406.1"/>
</g>
<!-- Mix wet ingredients -->
<g id="node7" class="node">
<title>Mix wet ingredients</title>
<ellipse fill="none" stroke="black" cx="481.69" cy="-234" rx="104.78" ry="18"/>
<text text-anchor="middle" x="481.69" y="-230.3" font-family="Times,serif" font-size="14.00">Mix wet ingredients</text>
</g>
<!-- Drain bananas&#45;&gt;Mix wet ingredients -->
<g id="edge5" class="edge">
<title>Drain bananas&#45;&gt;Mix wet ingredients</title>
<path fill="none" stroke="black" d="M82.04,-360.59C60.67,-341.67 32.97,-310.31 52.69,-288 73.68,-264.26 253.66,-248.78 373.74,-240.99"/>
<polygon fill="black" stroke="black" points="373.97,-244.48 383.72,-240.35 373.52,-237.5 373.97,-244.48"/>
</g>
<!-- Reduce banana liquid -->
<g id="node8" class="node">
<title>Reduce banana liquid</title>
<ellipse fill="none" stroke="black" cx="171.69" cy="-306" rx="110.48" ry="18"/>
<text text-anchor="middle" x="171.69" y="-302.3" font-family="Times,serif" font-size="14.00">Reduce banana liquid</text>
</g>
<!-- Drain bananas&#45;&gt;Reduce banana liquid -->
<g id="edge6" class="edge">
<title>Drain bananas&#45;&gt;Reduce banana liquid</title>
<path fill="none" stroke="black" d="M119.39,-360.05C127.83,-351.5 138.22,-340.96 147.51,-331.54"/>
<polygon fill="black" stroke="black" points="150.13,-333.85 154.66,-324.28 145.15,-328.94 150.13,-333.85"/>
</g>
<!-- Mix batter -->
<g id="node14" class="node">
<title>Mix batter</title>
<ellipse fill="none" stroke="black" cx="655.69" cy="-162" rx="59.59" ry="18"/>
<text text-anchor="middle" x="655.69" y="-158.3" font-family="Times,serif" font-size="14.00">Mix batter</text>
</g>
<!-- Mix wet ingredients&#45;&gt;Mix batter -->
<g id="edge18" class="edge">
<title>Mix wet ingredients&#45;&gt;Mix batter</title>
<path fill="none" stroke="black" d="M520.74,-217.29C547.81,-206.4 583.88,-191.89 611.92,-180.61"/>
<polygon fill="black" stroke="black" points="613.51,-183.74 621.48,-176.76 610.89,-177.25 613.51,-183.74"/>
</g>
<!-- Reduce banana liquid&#45;&gt;Mix wet ingredients -->
<g id="edge7" class="edge">
<title>Reduce banana liquid&#45;&gt;Mix wet ingredients</title>
<path fill="none" stroke="black" d="M233.68,-291C284.8,-279.46 357.35,-263.08 410.79,-251.01"/>
<polygon fill="black" stroke="black" points="411.88,-254.35 420.87,-248.73 410.34,-247.52 411.88,-254.35"/>
</g>
<!-- Melt butter -->
<g id="node9" class="node">
<title>Melt butter</title>
<ellipse fill="none" stroke="black" cx="364.69" cy="-306" rx="64.19" ry="18"/>
<text text-anchor="middle" x="364.69" y="-302.3" font-family="Times,serif" font-size="14.00">Melt butter</text>
</g>
<!-- Melt butter&#45;&gt;Mix wet ingredients -->
<g id="edge8" class="edge">
<title>Melt butter&#45;&gt;Mix wet ingredients</title>
<path fill="none" stroke="black" d="M390.66,-289.46C406.71,-279.86 427.55,-267.39 445.25,-256.81"/>
<polygon fill="black" stroke="black" points="447.38,-259.6 454.17,-251.47 443.79,-253.6 447.38,-259.6"/>
</g>
<!-- Flour -->
<g id="node10" class="node">
<title>Flour</title>
<ellipse fill="none" stroke="black" cx="830.69" cy="-306" rx="36" ry="18"/>
<text text-anchor="middle" x="830.69" y="-302.3" font-family="Times,serif" font-size="14.00">Flour</text>
</g>
<!-- Mix dry ingredients -->
<g id="node11" class="node">
<title>Mix dry ingredients</title>
<ellipse fill="none" stroke="black" cx="890.69" cy="-234" rx="102.88" ry="18"/>
<text text-anchor="middle" x="890.69" y="-230.3" font-family="Times,serif" font-size="14.00">Mix dry ingredients</text>
</g>
<!-- Flour&#45;&gt;Mix dry ingredients -->
<g id="edge9" class="edge">
<title>Flour&#45;&gt;Mix dry ingredients</title>
<path fill="none" stroke="black" d="M844.31,-289.12C851.65,-280.54 860.89,-269.77 869.19,-260.09"/>
<polygon fill="black" stroke="black" points="872.02,-262.16 875.87,-252.29 866.7,-257.61 872.02,-262.16"/>
</g>
<!-- Mix dry ingredients&#45;&gt;Mix batter -->
<g id="edge12" class="edge">
<title>Mix dry ingredients&#45;&gt;Mix batter</title>
<path fill="none" stroke="black" d="M840.85,-218.15C801.36,-206.39 746.39,-190.02 706.61,-178.17"/>
<polygon fill="black" stroke="black" points="707.43,-174.76 696.84,-175.26 705.43,-181.47 707.43,-174.76"/>
</g>
<!-- Baking soda -->
<g id="node12" class="node">
<title>Baking soda</title>
<ellipse fill="none" stroke="black" cx="951.69" cy="-306" rx="67.69" ry="18"/>
<text text-anchor="middle" x="951.69" y="-302.3" font-family="Times,serif" font-size="14.00">Baking soda</text>
</g>
<!-- Baking soda&#45;&gt;Mix dry ingredients -->
<g id="edge10" class="edge">
<title>Baking soda&#45;&gt;Mix dry ingredients</title>
<path fill="none" stroke="black" d="M937.23,-288.41C929.75,-279.82 920.46,-269.16 912.15,-259.63"/>
<polygon fill="black" stroke="black" points="914.68,-257.2 905.47,-251.96 909.4,-261.79 914.68,-257.2"/>
</g>
<!-- Salt -->
<g id="node13" class="node">
<title>Salt</title>
<ellipse fill="none" stroke="black" cx="1066.69" cy="-306" rx="29.5" ry="18"/>
<text text-anchor="middle" x="1066.69" y="-302.3" font-family="Times,serif" font-size="14.00">Salt</text>
</g>
<!-- Salt&#45;&gt;Mix dry ingredients -->
<g id="edge11" class="edge">
<title>Salt&#45;&gt;Mix dry ingredients</title>
<path fill="none" stroke="black" d="M1043.87,-294.55C1038.89,-292.34 1033.63,-290.05 1028.69,-288 1000.42,-276.26 968.54,-263.95 942.55,-254.16"/>
<polygon fill="black" stroke="black" points="943.49,-250.77 932.9,-250.54 941.03,-257.33 943.49,-250.77"/>
</g>
<!-- Assemble in pan -->
<g id="node15" class="node">
<title>Assemble in pan</title>
<ellipse fill="none" stroke="black" cx="655.69" cy="-90" rx="87.18" ry="18"/>
<text text-anchor="middle" x="655.69" y="-86.3" font-family="Times,serif" font-size="14.00">Assemble in pan</text>
</g>
<!-- Mix batter&#45;&gt;Assemble in pan -->
<g id="edge13" class="edge">
<title>Mix batter&#45;&gt;Assemble in pan</title>
<path fill="none" stroke="black" d="M655.69,-143.7C655.69,-135.98 655.69,-126.71 655.69,-118.11"/>
<polygon fill="black" stroke="black" points="659.19,-118.1 655.69,-108.1 652.19,-118.1 659.19,-118.1"/>
</g>
<!-- Assemble in pan&#45;&gt;Bake -->
<g id="edge14" class="edge">
<title>Assemble in pan&#45;&gt;Bake</title>
<path fill="none" stroke="black" d="M636.26,-72.41C625.02,-62.82 610.76,-50.65 598.7,-40.35"/>
<polygon fill="black" stroke="black" points="600.64,-37.4 590.76,-33.57 596.09,-42.73 600.64,-37.4"/>
</g>
<!-- Eggs -->
<g id="node16" class="node">
<title>Eggs</title>
<ellipse fill="none" stroke="black" cx="481.69" cy="-306" rx="34.39" ry="18"/>
<text text-anchor="middle" x="481.69" y="-302.3" font-family="Times,serif" font-size="14.00">Eggs</text>
</g>
<!-- Eggs&#45;&gt;Mix wet ingredients -->
<g id="edge15" class="edge">
<title>Eggs&#45;&gt;Mix wet ingredients</title>
<path fill="none" stroke="black" d="M481.69,-287.7C481.69,-279.98 481.69,-270.71 481.69,-262.11"/>
<polygon fill="black" stroke="black" points="485.19,-262.1 481.69,-252.1 478.19,-262.1 485.19,-262.1"/>
</g>
<!-- Brown sugar -->
<g id="node17" class="node">
<title>Brown sugar</title>
<ellipse fill="none" stroke="black" cx="604.69" cy="-306" rx="70.39" ry="18"/>
<text text-anchor="middle" x="604.69" y="-302.3" font-family="Times,serif" font-size="14.00">Brown sugar</text>
</g>
<!-- Brown sugar&#45;&gt;Mix wet ingredients -->
<g id="edge16" class="edge">
<title>Brown sugar&#45;&gt;Mix wet ingredients</title>
<path fill="none" stroke="black" d="M577.09,-289.29C560.04,-279.59 537.95,-267.02 519.32,-256.41"/>
<polygon fill="black" stroke="black" points="520.91,-253.29 510.49,-251.39 517.45,-259.38 520.91,-253.29"/>
</g>
<!-- Vanilla -->
<g id="node18" class="node">
<title>Vanilla</title>
<ellipse fill="none" stroke="black" cx="734.69" cy="-306" rx="42.49" ry="18"/>
<text text-anchor="middle" x="734.69" y="-302.3" font-family="Times,serif" font-size="14.00">Vanilla</text>
</g>
<!-- Vanilla&#45;&gt;Mix wet ingredients -->
<g id="edge17" class="edge">
<title>Vanilla&#45;&gt;Mix wet ingredients</title>
<path fill="none" stroke="black" d="M702.96,-294.07C696.6,-291.98 689.95,-289.86 683.69,-288 639.16,-274.75 588.6,-261.49 549.2,-251.54"/>
<polygon fill="black" stroke="black" points="549.99,-248.13 539.43,-249.09 548.28,-254.92 549.99,-248.13"/>
</g>
</g>
</svg>
