<?xml version="1.0" encoding="UTF-8" standalone="no"?>
<!DOCTYPE svg PUBLIC "-//W3C//DTD SVG 1.1//EN"
 "http://www.w3.org/Graphics/SVG/1.1/DTD/svg11.dtd">
<!-- Generated by graphviz version 2.42.4 (0)
 -->
<!-- Pages: 1 -->
<svg width="1117pt" height="689pt"
 viewBox="0.00 0.00 1117.00 689.00" xmlns="http://www.w3.org/2000/svg" xmlns:xlink="http://www.w3.org/1999/xlink">
<g id="graph0" class="graph" transform="scale(1 1) rotate(0) translate(4 685)">
<g id="clust1" class="cluster">
<title>cluster_bananas</title>
<polygon fill="transparent" stroke="black" points="8,-307 8,-673 244,-673 244,-307 8,-307"/>
<text text-anchor="middle" x="126" y="-657.8" font-family="Times,serif" font-size="14.00">Banana stuff</text>
</g>
<g id="clust2" class="cluster">
<title>cluster_wet</title>
<polygon fill="transparent" stroke="black" points="284,-235 284,-382 776,-382 776,-235 284,-235"/>
<text text-anchor="middle" x="530" y="-366.8" font-family="Times,serif" font-size="14.00">Wet ingredients</text>
</g>
<g id="clust3" class="cluster">
<title>cluster_dry</title>
<polygon fill="transparent" stroke="black" points="784,-235 784,-382 1101,-382 1101,-235 784,-235"/>
<text text-anchor="middle" x="942.5" y="-366.8" font-family="Times,serif" font-size="14.00">Dry ingredients</text>
</g>
<g id="clust4" class="cluster">
<title>cluster_assembly</title>
<polygon fill="transparent" stroke="black" points="573,-8 573,-227 897,-227 897,-8 573,-8"/>
<text text-anchor="middle" x="735" y="-211.8" font-family="Times,serif" font-size="14.00">Assemble and bake</text>
</g>
<!-- Defrost bananas -->
<g id="node1" class="node">
<title>Defrost bananas</title>
<ellipse fill="none" stroke="black" cx="129" cy="-624" rx="87.18" ry="18"/>
<text text-anchor="middle" x="129" y="-620.3" font-family="Times,serif" font-size="14.00">Defrost bananas</text>
</g>
<!-- Peel bananas -->
<g id="node2" class="node">
<title>Peel bananas</title>
<ellipse fill="none" stroke="black" cx="129" cy="-552" rx="71.49" ry="18"/>
<text text-anchor="middle" x="129" y="-548.3" font-family="Times,serif" font-size="14.00">Peel bananas</text>
</g>
<!-- Defrost bananas&#45;&gt;Peel bananas -->
<g id="edge1" class="edge">
<title>Defrost bananas&#45;&gt;Peel bananas</title>
<path fill="none" stroke="black" d="M129,-605.7C129,-597.98 129,-588.71 129,-580.11"/>
<polygon fill="black" stroke="black" points="132.5,-580.1 129,-570.1 125.5,-580.1 132.5,-580.1"/>
</g>
<!-- Microwave bananas -->
<g id="node3" class="node">
<title>Microwave bananas</title>
<ellipse fill="none" stroke="black" cx="129" cy="-480" rx="102.88" ry="18"/>
<text text-anchor="middle" x="129" y="-476.3" font-family="Times,serif" font-size="14.00">Microwave bananas</text>
</g>
<!-- Peel bananas&#45;&gt;Microwave bananas -->
<g id="edge2" class="edge">
<title>Peel bananas&#45;&gt;Microwave bananas</title>
<path fill="none" stroke="black" d="M129,-533.7C129,-525.98 129,-516.71 129,-508.11"/>
<polygon fill="black" stroke="black" points="132.5,-508.1 129,-498.1 125.5,-508.1 132.5,-508.1"/>
</g>
<!-- Drain bananas -->
<g id="node4" class="node">
<title>Drain bananas</title>
<ellipse fill="none" stroke="black" cx="129" cy="-408" rx="77.99" ry="18"/>
<text text-anchor="middle" x="129" y="-404.3" font-family="Times,serif" font-size="14.00">Drain bananas</text>
</g>
<!-- Microwave bananas&#45;&gt;Drain bananas -->
<g id="edge3" class="edge">
<title>Microwave bananas&#45;&gt;Drain bananas</title>
<path fill="none" stroke="black" d="M129,-461.7C129,-453.98 129,-444.71 129,-436.11"/>
<polygon fill="black" stroke="black" points="132.5,-436.1 129,-426.1 125.5,-436.1 132.5,-436.1"/>
</g>
<!-- Reduce banana liquid -->
<g id="node5" class="node">
<title>Reduce banana liquid</title>
<ellipse fill="none" stroke="black" cx="126" cy="-333" rx="110.48" ry="18"/>
<text text-anchor="middle" x="126" y="-329.3" font-family="Times,serif" font-size="14.00">Reduce banana liquid</text>
</g>
<!-- Drain bananas&#45;&gt;Reduce banana liquid -->
<g id="edge4" class="edge">
<title>Drain bananas&#45;&gt;Reduce banana liquid</title>
<path fill="none" stroke="black" d="M128.29,-389.7C127.94,-381.25 127.52,-370.87 127.12,-361.37"/>
<polygon fill="black" stroke="black" points="130.61,-361.02 126.71,-351.18 123.62,-361.31 130.61,-361.02"/>
</g>
<!-- Mix wet ingredients -->
<g id="node6" class="node">
<title>Mix wet ingredients</title>
<ellipse fill="none" stroke="black" cx="464" cy="-261" rx="104.78" ry="18"/>
<text text-anchor="middle" x="464" y="-257.3" font-family="Times,serif" font-size="14.00">Mix wet ingredients</text>
</g>
<!-- Drain bananas&#45;&gt;Mix wet ingredients -->
<g id="edge5" class="edge">
<title>Drain bananas&#45;&gt;Mix wet ingredients</title>
<path fill="none" stroke="black" d="M202.01,-401.49C217.34,-397.65 232.6,-391.56 245,-382 274.59,-359.18 253.77,-330.29 283,-307 305.43,-289.13 334,-278.24 361.78,-271.64"/>
<polygon fill="black" stroke="black" points="362.55,-275.05 371.56,-269.48 361.04,-268.22 362.55,-275.05"/>
</g>
<!-- Reduce banana liquid&#45;&gt;Mix wet ingredients -->
<g id="edge6" class="edge">
<title>Reduce banana liquid&#45;&gt;Mix wet ingredients</title>
<path fill="none" stroke="black" d="M191.57,-318.42C248.37,-306.66 330.51,-289.65 389.72,-277.38"/>
<polygon fill="black" stroke="black" points="390.68,-280.76 399.76,-275.3 389.26,-273.91 390.68,-280.76"/>
</g>
<!-- Mix batter -->
<g id="node17" class="node">
<title>Mix batter</title>
<ellipse fill="none" stroke="black" cx="668" cy="-178" rx="59.59" ry="18"/>
<text text-anchor="middle" x="668" y="-174.3" font-family="Times,serif" font-size="14.00">Mix batter</text>
</g>
<!-- Mix wet ingredients&#45;&gt;Mix batter -->
<g id="edge18" class="edge">
<title>Mix wet ingredients&#45;&gt;Mix batter</title>
<path fill="none" stroke="black" d="M503.82,-244.19C538.26,-230.51 588.01,-210.76 623.7,-196.59"/>
<polygon fill="black" stroke="black" points="625.37,-199.69 633.38,-192.75 622.79,-193.19 625.37,-199.69"/>
</g>
<!-- Melt butter -->
<g id="node7" class="node">
<title>Melt butter</title>
<ellipse fill="none" stroke="black" cx="704" cy="-333" rx="64.19" ry="18"/>
<text text-anchor="middle" x="704" y="-329.3" font-family="Times,serif" font-size="14.00">Melt butter</text>
</g>
<!-- Melt butter&#45;&gt;Mix wet ingredients -->
<g id="edge7" class="edge">
<title>Melt butter&#45;&gt;Mix wet ingredients</title>
<path fill="none" stroke="black" d="M665.35,-318.45C654.01,-314.6 641.55,-310.51 630,-307 597.13,-297 560.28,-286.9 529.66,-278.81"/>
<polygon fill="black" stroke="black" points="530.52,-275.42 519.95,-276.26 528.74,-282.19 530.52,-275.42"/>
</g>
<!-- Eggs -->
<g id="node8" class="node">
<title>Eggs</title>
<ellipse fill="none" stroke="black" cx="587" cy="-333" rx="34.39" ry="18"/>
<text text-anchor="middle" x="587" y="-329.3" font-family="Times,serif" font-size="14.00">Eggs</text>
</g>
<!-- Eggs&#45;&gt;Mix wet ingredients -->
<g id="edge8" class="edge">
<title>Eggs&#45;&gt;Mix wet ingredients</title>
<path fill="none" stroke="black" d="M564.44,-319.16C546.92,-309.19 522.24,-295.14 501.73,-283.47"/>
<polygon fill="black" stroke="black" points="503.35,-280.37 492.93,-278.46 499.89,-286.45 503.35,-280.37"/>
</g>
<!-- Brown sugar -->
<g id="node9" class="node">
<title>Brown sugar</title>
<ellipse fill="none" stroke="black" cx="464" cy="-333" rx="70.39" ry="18"/>
<text text-anchor="middle" x="464" y="-329.3" font-family="Times,serif" font-size="14.00">Brown sugar</text>
</g>
<!-- Brown sugar&#45;&gt;Mix wet ingredients -->
<g id="edge9" class="edge">
<title>Brown sugar&#45;&gt;Mix wet ingredients</title>
<path fill="none" stroke="black" d="M464,-314.7C464,-306.98 464,-297.71 464,-289.11"/>
<polygon fill="black" stroke="black" points="467.5,-289.1 464,-279.1 460.5,-289.1 467.5,-289.1"/>
</g>
<!-- Vanilla -->
<g id="node10" class="node">
<title>Vanilla</title>
<ellipse fill="none" stroke="black" cx="334" cy="-333" rx="42.49" ry="18"/>
<text text-anchor="middle" x="334" y="-329.3" font-family="Times,serif" font-size="14.00">Vanilla</text>
</g>
<!-- Vanilla&#45;&gt;Mix wet ingredients -->
<g id="edge10" class="edge">
<title>Vanilla&#45;&gt;Mix wet ingredients</title>
<path fill="none" stroke="black" d="M359.07,-318.5C377.66,-308.49 403.37,-294.65 424.69,-283.17"/>
<polygon fill="black" stroke="black" points="426.38,-286.23 433.52,-278.41 423.06,-280.07 426.38,-286.23"/>
</g>
<!-- Flour -->
<g id="node11" class="node">
<title>Flour</title>
<ellipse fill="none" stroke="black" cx="1057" cy="-333" rx="36" ry="18"/>
<text text-anchor="middle" x="1057" y="-329.3" font-family="Times,serif" font-size="14.00">Flour</text>
</g>
<!-- Mix dry ingredients -->
<g id="node12" class="node">
<title>Mix dry ingredients</title>
<ellipse fill="none" stroke="black" cx="915" cy="-261" rx="102.88" ry="18"/>
<text text-anchor="middle" x="915" y="-257.3" font-family="Times,serif" font-size="14.00">Mix dry ingredients</text>
</g>
<!-- Flour&#45;&gt;Mix dry ingredients -->
<g id="edge11" class="edge">
<title>Flour&#45;&gt;Mix dry ingredients</title>
<path fill="none" stroke="black" d="M1034.37,-318.65C1027.56,-314.77 1020.04,-310.61 1013,-307 996.29,-298.43 977.62,-289.67 961.11,-282.18"/>
<polygon fill="black" stroke="black" points="962.22,-278.84 951.66,-277.93 959.34,-285.23 962.22,-278.84"/>
</g>
<!-- Mix dry ingredients&#45;&gt;Mix batter -->
<g id="edge15" class="edge">
<title>Mix dry ingredients&#45;&gt;Mix batter</title>
<path fill="none" stroke="black" d="M868.83,-244.86C825.47,-230.64 760.84,-209.44 716.68,-194.96"/>
<polygon fill="black" stroke="black" points="717.63,-191.59 707.03,-191.8 715.44,-198.24 717.63,-191.59"/>
</g>
<!-- Baking soda -->
<g id="node13" class="node">
<title>Baking soda</title>
<ellipse fill="none" stroke="black" cx="936" cy="-333" rx="67.69" ry="18"/>
<text text-anchor="middle" x="936" y="-329.3" font-family="Times,serif" font-size="14.00">Baking soda</text>
</g>
<!-- Baking soda&#45;&gt;Mix dry ingredients -->
<g id="edge12" class="edge">
<title>Baking soda&#45;&gt;Mix dry ingredients</title>
<path fill="none" stroke="black" d="M930.81,-314.7C928.47,-306.9 925.65,-297.51 923.05,-288.83"/>
<polygon fill="black" stroke="black" points="926.36,-287.68 920.13,-279.1 919.65,-289.69 926.36,-287.68"/>
</g>
<!-- Salt -->
<g id="node14" class="node">
<title>Salt</title>
<ellipse fill="none" stroke="black" cx="821" cy="-333" rx="29.5" ry="18"/>
<text text-anchor="middle" x="821" y="-329.3" font-family="Times,serif" font-size="14.00">Salt</text>
</g>
<!-- Salt&#45;&gt;Mix dry ingredients -->
<g id="edge13" class="edge">
<title>Salt&#45;&gt;Mix dry ingredients</title>
<path fill="none" stroke="black" d="M839.12,-318.5C852,-308.92 869.59,-295.81 884.6,-284.64"/>
<polygon fill="black" stroke="black" points="886.69,-287.45 892.62,-278.67 882.51,-281.83 886.69,-287.45"/>
</g>
<!-- Heat oven -->
<g id="node15" class="node">
<title>Heat oven</title>
<ellipse fill="none" stroke="black" cx="831" cy="-106" rx="57.69" ry="18"/>
<text text-anchor="middle" x="831" y="-102.3" font-family="Times,serif" font-size="14.00">Heat oven</text>
</g>
<!-- Bake -->
<g id="node16" class="node">
<title>Bake</title>
<ellipse fill="none" stroke="black" cx="749" cy="-34" rx="33.6" ry="18"/>
<text text-anchor="middle" x="749" y="-30.3" font-family="Times,serif" font-size="14.00">Bake</text>
</g>
<!-- Heat oven&#45;&gt;Bake -->
<g id="edge14" class="edge">
<title>Heat oven&#45;&gt;Bake</title>
<path fill="none" stroke="black" d="M811.98,-88.76C800.65,-79.09 786.14,-66.7 773.9,-56.25"/>
<polygon fill="black" stroke="black" points="776.12,-53.55 766.24,-49.72 771.57,-58.87 776.12,-53.55"/>
</g>
<!-- Assemble in pan -->
<g id="node18" class="node">
<title>Assemble in pan</title>
<ellipse fill="none" stroke="black" cx="668" cy="-106" rx="87.18" ry="18"/>
<text text-anchor="middle" x="668" y="-102.3" font-family="Times,serif" font-size="14.00">Assemble in pan</text>
</g>
<!-- Mix batter&#45;&gt;Assemble in pan -->
<g id="edge16" class="edge">
<title>Mix batter&#45;&gt;Assemble in pan</title>
<path fill="none" stroke="black" d="M668,-159.7C668,-151.98 668,-142.71 668,-134.11"/>
<polygon fill="black" stroke="black" points="671.5,-134.1 668,-124.1 664.5,-134.1 671.5,-134.1"/>
</g>
<!-- Assemble in pan&#45;&gt;Bake -->
<g id="edge17" class="edge">
<title>Assemble in pan&#45;&gt;Bake</title>
<path fill="none" stroke="black" d="M687.2,-88.41C698.22,-78.88 712.19,-66.81 724.05,-56.56"/>
<polygon fill="black" stroke="black" points="726.59,-58.99 731.87,-49.8 722.02,-53.69 726.59,-58.99"/>
</g>
</g>
</svg>
