<?xml version="1.0" encoding="UTF-8" standalone="no"?>
<!DOCTYPE svg PUBLIC "-//W3C//DTD SVG 1.1//EN"
 "http://www.w3.org/Graphics/SVG/1.1/DTD/svg11.dtd">
<!-- Generated by graphviz version 2.42.4 (0)
 -->
<!-- Pages: 1 -->
<svg width="839pt" height="548pt"
 viewBox="0.00 0.00 838.96 548.00" xmlns="http://www.w3.org/2000/svg" xmlns:xlink="http://www.w3.org/1999/xlink">
<g id="graph0" class="graph" transform="scale(1 1) rotate(0) translate(4 544)">
<!-- mergesort([&#45;75, 43, &#45;70, &#45;41]) -->
<g id="node1" class="node">
<title>mergesort([&#45;75, 43, &#45;70, &#45;41])</title>
<ellipse fill="none" stroke="black" cx="523.96" cy="-522" rx="145.67" ry="18"/>
<text text-anchor="middle" x="523.96" y="-518.3" font-family="Times,serif" font-size="14.00">mergesort([&#45;75, 43, &#45;70, &#45;41])</text>
</g>
<!-- mergesort([&#45;75, 43]) -->
<g id="node2" class="node">
<title>mergesort([&#45;75, 43])</title>
<ellipse fill="none" stroke="black" cx="199.96" cy="-450" rx="104.78" ry="18"/>
<text text-anchor="middle" x="199.96" y="-446.3" font-family="Times,serif" font-size="14.00">mergesort([&#45;75, 43])</text>
</g>
<!-- mergesort([&#45;75, 43, &#45;70, &#45;41])&#45;&gt;mergesort([&#45;75, 43]) -->
<g id="edge1" class="edge">
<title>mergesort([&#45;75, 43, &#45;70, &#45;41])&#45;&gt;mergesort([&#45;75, 43])</title>
<path fill="none" stroke="black" d="M454.85,-506.07C401.14,-494.46 326.85,-478.41 272.32,-466.63"/>
<polygon fill="black" stroke="black" points="272.9,-463.18 262.38,-464.49 271.42,-470.02 272.9,-463.18"/>
</g>
<!-- mergesort([&#45;70, &#45;41]) -->
<g id="node4" class="node">
<title>mergesort([&#45;70, &#45;41])</title>
<ellipse fill="none" stroke="black" cx="523.96" cy="-450" rx="107.78" ry="18"/>
<text text-anchor="middle" x="523.96" y="-446.3" font-family="Times,serif" font-size="14.00">mergesort([&#45;70, &#45;41])</text>
</g>
<!-- mergesort([&#45;75, 43, &#45;70, &#45;41])&#45;&gt;mergesort([&#45;70, &#45;41]) -->
<g id="edge3" class="edge">
<title>mergesort([&#45;75, 43, &#45;70, &#45;41])&#45;&gt;mergesort([&#45;70, &#45;41])</title>
<path fill="none" stroke="black" d="M523.96,-503.7C523.96,-495.98 523.96,-486.71 523.96,-478.11"/>
<polygon fill="black" stroke="black" points="527.46,-478.1 523.96,-468.1 520.46,-478.1 527.46,-478.1"/>
</g>
<!-- merge([&#45;75, 43], [&#45;70, &#45;41]) -->
<g id="node6" class="node">
<title>merge([&#45;75, 43], [&#45;70, &#45;41])</title>
<ellipse fill="none" stroke="black" cx="523.96" cy="-90" rx="133.78" ry="18"/>
<text text-anchor="middle" x="523.96" y="-86.3" font-family="Times,serif" font-size="14.00">merge([&#45;75, 43], [&#45;70, &#45;41])</text>
</g>
<!-- mergesort([&#45;75, 43, &#45;70, &#45;41])&#45;&gt;merge([&#45;75, 43], [&#45;70, &#45;41]) -->
<g id="edge5" class="edge">
<title>mergesort([&#45;75, 43, &#45;70, &#45;41])&#45;&gt;merge([&#45;75, 43], [&#45;70, &#45;41])</title>
<path fill="none" stroke="black" d="M646.62,-512.16C732.13,-498.51 830.96,-464.3 830.96,-379 830.96,-379 830.96,-379 830.96,-233 830.96,-148.98 735.05,-114.52 650.45,-100.47"/>
<polygon fill="black" stroke="black" points="650.88,-96.99 640.46,-98.89 649.79,-103.91 650.88,-96.99"/>
</g>
<!-- merge([&#45;75], [43]) -->
<g id="node3" class="node">
<title>merge([&#45;75], [43])</title>
<ellipse fill="none" stroke="black" cx="154.96" cy="-234" rx="92.88" ry="18"/>
<text text-anchor="middle" x="154.96" y="-230.3" font-family="Times,serif" font-size="14.00">merge([&#45;75], [43])</text>
</g>
<!-- mergesort([&#45;75, 43])&#45;&gt;merge([&#45;75], [43]) -->
<g id="edge2" class="edge">
<title>mergesort([&#45;75, 43])&#45;&gt;merge([&#45;75], [43])</title>
<path fill="none" stroke="black" d="M124.8,-437.4C78.39,-428.52 25.09,-414.64 10.96,-396 -29.5,-342.64 56.54,-285.39 112.29,-255.64"/>
<polygon fill="black" stroke="black" points="114.06,-258.66 121.3,-250.93 110.81,-252.46 114.06,-258.66"/>
</g>
<!-- mergesort([&#45;75]) -->
<g id="node10" class="node">
<title>mergesort([&#45;75])</title>
<ellipse fill="none" stroke="black" cx="106.96" cy="-378" rx="87.18" ry="18"/>
<text text-anchor="middle" x="106.96" y="-374.3" font-family="Times,serif" font-size="14.00">mergesort([&#45;75])</text>
</g>
<!-- mergesort([&#45;75, 43])&#45;&gt;mergesort([&#45;75]) -->
<g id="edge11" class="edge">
<title>mergesort([&#45;75, 43])&#45;&gt;mergesort([&#45;75])</title>
<path fill="none" stroke="black" d="M177.44,-432.05C165.36,-422.96 150.3,-411.63 137.21,-401.77"/>
<polygon fill="black" stroke="black" points="139.04,-398.76 128.94,-395.55 134.83,-404.36 139.04,-398.76"/>
</g>
<!-- mergesort([43]) -->
<g id="node12" class="node">
<title>mergesort([43])</title>
<ellipse fill="none" stroke="black" cx="296.96" cy="-378" rx="84.49" ry="18"/>
<text text-anchor="middle" x="296.96" y="-374.3" font-family="Times,serif" font-size="14.00">mergesort([43])</text>
</g>
<!-- mergesort([&#45;75, 43])&#45;&gt;mergesort([43]) -->
<g id="edge14" class="edge">
<title>mergesort([&#45;75, 43])&#45;&gt;mergesort([43])</title>
<path fill="none" stroke="black" d="M222.95,-432.41C235.75,-423.17 251.87,-411.54 265.8,-401.49"/>
<polygon fill="black" stroke="black" points="268.07,-404.16 274.13,-395.47 263.98,-398.48 268.07,-404.16"/>
</g>
<!-- [&#45;75, 43] -->
<g id="node7" class="node">
<title>[&#45;75, 43]</title>
<ellipse fill="none" stroke="black" cx="302.96" cy="-162" rx="50.09" ry="18"/>
<text text-anchor="middle" x="302.96" y="-158.3" font-family="Times,serif" font-size="14.00">[&#45;75, 43]</text>
</g>
<!-- merge([&#45;75], [43])&#45;&gt;[&#45;75, 43] -->
<g id="edge6" class="edge">
<title>merge([&#45;75], [43])&#45;&gt;[&#45;75, 43]</title>
<path fill="none" stroke="black" d="M188.54,-217.12C211.18,-206.41 241.09,-192.26 264.66,-181.11"/>
<polygon fill="black" stroke="black" points="266.46,-184.14 274,-176.7 263.47,-177.81 266.46,-184.14"/>
</g>
<!-- merge([&#45;70], [&#45;41]) -->
<g id="node5" class="node">
<title>merge([&#45;70], [&#45;41])</title>
<ellipse fill="none" stroke="black" cx="523.96" cy="-234" rx="96.38" ry="18"/>
<text text-anchor="middle" x="523.96" y="-230.3" font-family="Times,serif" font-size="14.00">merge([&#45;70], [&#45;41])</text>
</g>
<!-- mergesort([&#45;70, &#45;41])&#45;&gt;merge([&#45;70], [&#45;41]) -->
<g id="edge4" class="edge">
<title>mergesort([&#45;70, &#45;41])&#45;&gt;merge([&#45;70], [&#45;41])</title>
<path fill="none" stroke="black" d="M474.77,-433.87C456.78,-425.68 438.31,-413.54 427.96,-396 419.83,-382.22 422.83,-375.16 427.96,-360 441.64,-319.54 474.34,-281.94 497.76,-258.76"/>
<polygon fill="black" stroke="black" points="500.25,-261.22 505.01,-251.76 495.39,-256.19 500.25,-261.22"/>
</g>
<!-- mergesort([&#45;70]) -->
<g id="node14" class="node">
<title>mergesort([&#45;70])</title>
<ellipse fill="none" stroke="black" cx="523.96" cy="-378" rx="87.18" ry="18"/>
<text text-anchor="middle" x="523.96" y="-374.3" font-family="Times,serif" font-size="14.00">mergesort([&#45;70])</text>
</g>
<!-- mergesort([&#45;70, &#45;41])&#45;&gt;mergesort([&#45;70]) -->
<g id="edge17" class="edge">
<title>mergesort([&#45;70, &#45;41])&#45;&gt;mergesort([&#45;70])</title>
<path fill="none" stroke="black" d="M523.96,-431.7C523.96,-423.98 523.96,-414.71 523.96,-406.11"/>
<polygon fill="black" stroke="black" points="527.46,-406.1 523.96,-396.1 520.46,-406.1 527.46,-406.1"/>
</g>
<!-- mergesort([&#45;41]) -->
<g id="node16" class="node">
<title>mergesort([&#45;41])</title>
<ellipse fill="none" stroke="black" cx="715.96" cy="-378" rx="87.18" ry="18"/>
<text text-anchor="middle" x="715.96" y="-374.3" font-family="Times,serif" font-size="14.00">mergesort([&#45;41])</text>
</g>
<!-- mergesort([&#45;70, &#45;41])&#45;&gt;mergesort([&#45;41]) -->
<g id="edge19" class="edge">
<title>mergesort([&#45;70, &#45;41])&#45;&gt;mergesort([&#45;41])</title>
<path fill="none" stroke="black" d="M567.05,-433.29C596.18,-422.67 634.76,-408.6 665.36,-397.45"/>
<polygon fill="black" stroke="black" points="666.79,-400.65 674.99,-393.94 664.39,-394.07 666.79,-400.65"/>
</g>
<!-- [&#45;70, &#45;41] -->
<g id="node8" class="node">
<title>[&#45;70, &#45;41]</title>
<ellipse fill="none" stroke="black" cx="523.96" cy="-162" rx="52.79" ry="18"/>
<text text-anchor="middle" x="523.96" y="-158.3" font-family="Times,serif" font-size="14.00">[&#45;70, &#45;41]</text>
</g>
<!-- merge([&#45;70], [&#45;41])&#45;&gt;[&#45;70, &#45;41] -->
<g id="edge7" class="edge">
<title>merge([&#45;70], [&#45;41])&#45;&gt;[&#45;70, &#45;41]</title>
<path fill="none" stroke="black" d="M523.96,-215.7C523.96,-207.98 523.96,-198.71 523.96,-190.11"/>
<polygon fill="black" stroke="black" points="527.46,-190.1 523.96,-180.1 520.46,-190.1 527.46,-190.1"/>
</g>
<!-- [&#45;75, &#45;70, &#45;41, 43] -->
<g id="node9" class="node">
<title>[&#45;75, &#45;70, &#45;41, 43]</title>
<ellipse fill="none" stroke="black" cx="523.96" cy="-18" rx="90.98" ry="18"/>
<text text-anchor="middle" x="523.96" y="-14.3" font-family="Times,serif" font-size="14.00">[&#45;75, &#45;70, &#45;41, 43]</text>
</g>
<!-- merge([&#45;75, 43], [&#45;70, &#45;41])&#45;&gt;[&#45;75, &#45;70, &#45;41, 43] -->
<g id="edge10" class="edge">
<title>merge([&#45;75, 43], [&#45;70, &#45;41])&#45;&gt;[&#45;75, &#45;70, &#45;41, 43]</title>
<path fill="none" stroke="black" d="M523.96,-71.7C523.96,-63.98 523.96,-54.71 523.96,-46.11"/>
<polygon fill="black" stroke="black" points="527.46,-46.1 523.96,-36.1 520.46,-46.1 527.46,-46.1"/>
</g>
<!-- [&#45;75, 43]&#45;&gt;merge([&#45;75, 43], [&#45;70, &#45;41]) -->
<g id="edge8" class="edge">
<title>[&#45;75, 43]&#45;&gt;merge([&#45;75, 43], [&#45;70, &#45;41])</title>
<path fill="none" stroke="black" d="M339.45,-149.44C373.43,-138.68 424.68,-122.44 464.56,-109.81"/>
<polygon fill="black" stroke="black" points="465.69,-113.13 474.17,-106.77 463.58,-106.45 465.69,-113.13"/>
</g>
<!-- [&#45;70, &#45;41]&#45;&gt;merge([&#45;75, 43], [&#45;70, &#45;41]) -->
<g id="edge9" class="edge">
<title>[&#45;70, &#45;41]&#45;&gt;merge([&#45;75, 43], [&#45;70, &#45;41])</title>
<path fill="none" stroke="black" d="M523.96,-143.7C523.96,-135.98 523.96,-126.71 523.96,-118.11"/>
<polygon fill="black" stroke="black" points="527.46,-118.1 523.96,-108.1 520.46,-118.1 527.46,-118.1"/>
</g>
<!-- [&#45;75] -->
<g id="node11" class="node">
<title>[&#45;75]</title>
<ellipse fill="none" stroke="black" cx="130.96" cy="-306" rx="32.49" ry="18"/>
<text text-anchor="middle" x="130.96" y="-302.3" font-family="Times,serif" font-size="14.00">[&#45;75]</text>
</g>
<!-- mergesort([&#45;75])&#45;&gt;[&#45;75] -->
<g id="edge12" class="edge">
<title>mergesort([&#45;75])&#45;&gt;[&#45;75]</title>
<path fill="none" stroke="black" d="M112.89,-359.7C115.56,-351.9 118.78,-342.51 121.76,-333.83"/>
<polygon fill="black" stroke="black" points="125.16,-334.7 125.09,-324.1 118.54,-332.43 125.16,-334.7"/>
</g>
<!-- [&#45;75]&#45;&gt;merge([&#45;75], [43]) -->
<g id="edge13" class="edge">
<title>[&#45;75]&#45;&gt;merge([&#45;75], [43])</title>
<path fill="none" stroke="black" d="M136.77,-288.05C139.47,-280.18 142.75,-270.62 145.77,-261.79"/>
<polygon fill="black" stroke="black" points="149.1,-262.87 149.03,-252.28 142.48,-260.6 149.1,-262.87"/>
</g>
<!-- [43] -->
<g id="node13" class="node">
<title>[43]</title>
<ellipse fill="none" stroke="black" cx="249.96" cy="-306" rx="29.5" ry="18"/>
<text text-anchor="middle" x="249.96" y="-302.3" font-family="Times,serif" font-size="14.00">[43]</text>
</g>
<!-- mergesort([43])&#45;&gt;[43] -->
<g id="edge15" class="edge">
<title>mergesort([43])&#45;&gt;[43]</title>
<path fill="none" stroke="black" d="M285.58,-360.05C279.76,-351.38 272.56,-340.67 266.17,-331.15"/>
<polygon fill="black" stroke="black" points="269.07,-329.18 260.59,-322.83 263.25,-333.08 269.07,-329.18"/>
</g>
<!-- [43]&#45;&gt;merge([&#45;75], [43]) -->
<g id="edge16" class="edge">
<title>[43]&#45;&gt;merge([&#45;75], [43])</title>
<path fill="none" stroke="black" d="M231.64,-291.5C218.63,-281.92 200.85,-268.81 185.68,-257.64"/>
<polygon fill="black" stroke="black" points="187.7,-254.78 177.58,-251.67 183.55,-260.42 187.7,-254.78"/>
</g>
<!-- [&#45;70] -->
<g id="node15" class="node">
<title>[&#45;70]</title>
<ellipse fill="none" stroke="black" cx="523.96" cy="-306" rx="32.49" ry="18"/>
<text text-anchor="middle" x="523.96" y="-302.3" font-family="Times,serif" font-size="14.00">[&#45;70]</text>
</g>
<!-- mergesort([&#45;70])&#45;&gt;[&#45;70] -->
<g id="edge18" class="edge">
<title>mergesort([&#45;70])&#45;&gt;[&#45;70]</title>
<path fill="none" stroke="black" d="M523.96,-359.7C523.96,-351.98 523.96,-342.71 523.96,-334.11"/>
<polygon fill="black" stroke="black" points="527.46,-334.1 523.96,-324.1 520.46,-334.1 527.46,-334.1"/>
</g>
<!-- [&#45;70]&#45;&gt;merge([&#45;70], [&#45;41]) -->
<g id="edge21" class="edge">
<title>[&#45;70]&#45;&gt;merge([&#45;70], [&#45;41])</title>
<path fill="none" stroke="black" d="M523.96,-287.7C523.96,-279.98 523.96,-270.71 523.96,-262.11"/>
<polygon fill="black" stroke="black" points="527.46,-262.1 523.96,-252.1 520.46,-262.1 527.46,-262.1"/>
</g>
<!-- [&#45;41] -->
<g id="node17" class="node">
<title>[&#45;41]</title>
<ellipse fill="none" stroke="black" cx="661.96" cy="-306" rx="32.49" ry="18"/>
<text text-anchor="middle" x="661.96" y="-302.3" font-family="Times,serif" font-size="14.00">[&#45;41]</text>
</g>
<!-- mergesort([&#45;41])&#45;&gt;[&#45;41] -->
<g id="edge20" class="edge">
<title>mergesort([&#45;41])&#45;&gt;[&#45;41]</title>
<path fill="none" stroke="black" d="M702.89,-360.05C696.13,-351.29 687.76,-340.45 680.36,-330.86"/>
<polygon fill="black" stroke="black" points="683.05,-328.61 674.17,-322.83 677.51,-332.89 683.05,-328.61"/>
</g>
<!-- [&#45;41]&#45;&gt;merge([&#45;70], [&#45;41]) -->
<g id="edge22" class="edge">
<title>[&#45;41]&#45;&gt;merge([&#45;70], [&#45;41])</title>
<path fill="none" stroke="black" d="M638.86,-293.28C618.65,-283.03 588.83,-267.91 564.64,-255.63"/>
<polygon fill="black" stroke="black" points="566.17,-252.49 555.67,-251.09 563,-258.73 566.17,-252.49"/>
</g>
</g>
</svg>
