<?xml version="1.0" encoding="UTF-8" standalone="no"?>
<!DOCTYPE svg PUBLIC "-//W3C//DTD SVG 1.1//EN"
 "http://www.w3.org/Graphics/SVG/1.1/DTD/svg11.dtd">
<!-- Generated by graphviz version 2.40.1 (0)
 -->
<!-- Title: %3 Pages: 1 -->
<svg width="1104pt" height="620pt"
 viewBox="0.00 0.00 1103.94 620.00" xmlns="http://www.w3.org/2000/svg" xmlns:xlink="http://www.w3.org/1999/xlink">
<g id="graph0" class="graph" transform="scale(1 1) rotate(0) translate(4 616)">
<title>%3</title>
<polygon fill="#ffffff" stroke="transparent" points="-4,4 -4,-616 1099.9383,-616 1099.9383,4 -4,4"/>
<!-- Heat oven -->
<g id="node1" class="node">
<title>Heat oven</title>
<ellipse fill="none" stroke="#000000" cx="492.6909" cy="-90" rx="57.6901" ry="18"/>
<text text-anchor="middle" x="492.6909" y="-86.3" font-family="Times,serif" font-size="14.00" fill="#000000">Heat oven</text>
</g>
<!-- Bake -->
<g id="node2" class="node">
<title>Bake</title>
<ellipse fill="none" stroke="#000000" cx="573.6909" cy="-18" rx="33.5952" ry="18"/>
<text text-anchor="middle" x="573.6909" y="-14.3" font-family="Times,serif" font-size="14.00" fill="#000000">Bake</text>
</g>
<!-- Heat oven&#45;&gt;Bake -->
<g id="edge1" class="edge">
<title>Heat oven&#45;&gt;Bake</title>
<path fill="none" stroke="#000000" d="M511.8868,-72.937C522.8339,-63.2062 536.6842,-50.8948 548.4973,-40.3943"/>
<polygon fill="#000000" stroke="#000000" points="551.1407,-42.7275 556.2895,-33.4679 546.4901,-37.4956 551.1407,-42.7275"/>
</g>
<!-- Defrost bananas -->
<g id="node3" class="node">
<title>Defrost bananas</title>
<ellipse fill="none" stroke="#000000" cx="102.6909" cy="-594" rx="87.1846" ry="18"/>
<text text-anchor="middle" x="102.6909" y="-590.3" font-family="Times,serif" font-size="14.00" fill="#000000">Defrost bananas</text>
</g>
<!-- Peel bananas -->
<g id="node4" class="node">
<title>Peel bananas</title>
<ellipse fill="none" stroke="#000000" cx="102.6909" cy="-522" rx="71.4873" ry="18"/>
<text text-anchor="middle" x="102.6909" y="-518.3" font-family="Times,serif" font-size="14.00" fill="#000000">Peel bananas</text>
</g>
<!-- Defrost bananas&#45;&gt;Peel bananas -->
<g id="edge2" class="edge">
<title>Defrost bananas&#45;&gt;Peel bananas</title>
<path fill="none" stroke="#000000" d="M102.6909,-575.8314C102.6909,-568.131 102.6909,-558.9743 102.6909,-550.4166"/>
<polygon fill="#000000" stroke="#000000" points="106.191,-550.4132 102.6909,-540.4133 99.191,-550.4133 106.191,-550.4132"/>
</g>
<!-- Microwave bananas -->
<g id="node5" class="node">
<title>Microwave bananas</title>
<ellipse fill="none" stroke="#000000" cx="102.6909" cy="-450" rx="102.8821" ry="18"/>
<text text-anchor="middle" x="102.6909" y="-446.3" font-family="Times,serif" font-size="14.00" fill="#000000">Microwave bananas</text>
</g>
<!-- Peel bananas&#45;&gt;Microwave bananas -->
<g id="edge3" class="edge">
<title>Peel bananas&#45;&gt;Microwave bananas</title>
<path fill="none" stroke="#000000" d="M102.6909,-503.8314C102.6909,-496.131 102.6909,-486.9743 102.6909,-478.4166"/>
<polygon fill="#000000" stroke="#000000" points="106.191,-478.4132 102.6909,-468.4133 99.191,-478.4133 106.191,-478.4132"/>
</g>
<!-- Drain bananas -->
<g id="node6" class="node">
<title>Drain bananas</title>
<ellipse fill="none" stroke="#000000" cx="102.6909" cy="-378" rx="77.9862" ry="18"/>
<text text-anchor="middle" x="102.6909" y="-374.3" font-family="Times,serif" font-size="14.00" fill="#000000">Drain bananas</text>
</g>
<!-- Microwave bananas&#45;&gt;Drain bananas -->
<g id="edge4" class="edge">
<title>Microwave bananas&#45;&gt;Drain bananas</title>
<path fill="none" stroke="#000000" d="M102.6909,-431.8314C102.6909,-424.131 102.6909,-414.9743 102.6909,-406.4166"/>
<polygon fill="#000000" stroke="#000000" points="106.191,-406.4132 102.6909,-396.4133 99.191,-406.4133 106.191,-406.4132"/>
</g>
<!-- Mix wet ingredients -->
<g id="node7" class="node">
<title>Mix wet ingredients</title>
<ellipse fill="none" stroke="#000000" cx="481.6909" cy="-234" rx="104.7816" ry="18"/>
<text text-anchor="middle" x="481.6909" y="-230.3" font-family="Times,serif" font-size="14.00" fill="#000000">Mix wet ingredients</text>
</g>
<!-- Drain bananas&#45;&gt;Mix wet ingredients -->
<g id="edge5" class="edge">
<title>Drain bananas&#45;&gt;Mix wet ingredients</title>
<path fill="none" stroke="#000000" d="M80.8335,-360.3528C59.5924,-341.1127 33.1821,-310.1184 52.6909,-288 73.5645,-264.3343 252.0978,-248.4603 372.1749,-240.3524"/>
<polygon fill="#000000" stroke="#000000" points="372.4134,-243.8444 382.1584,-239.687 371.9478,-236.8598 372.4134,-243.8444"/>
</g>
<!-- Reduce banana liquid -->
<g id="node8" class="node">
<title>Reduce banana liquid</title>
<ellipse fill="none" stroke="#000000" cx="171.6909" cy="-306" rx="110.4804" ry="18"/>
<text text-anchor="middle" x="171.6909" y="-302.3" font-family="Times,serif" font-size="14.00" fill="#000000">Reduce banana liquid</text>
</g>
<!-- Drain bananas&#45;&gt;Reduce banana liquid -->
<g id="edge6" class="edge">
<title>Drain bananas&#45;&gt;Reduce banana liquid</title>
<path fill="none" stroke="#000000" d="M119.7471,-360.2022C128.1234,-351.4617 138.3614,-340.7786 147.5271,-331.2144"/>
<polygon fill="#000000" stroke="#000000" points="150.1997,-333.4841 154.5918,-323.8425 145.1457,-328.6408 150.1997,-333.4841"/>
</g>
<!-- Mix batter -->
<g id="node14" class="node">
<title>Mix batter</title>
<ellipse fill="none" stroke="#000000" cx="655.6909" cy="-162" rx="59.5901" ry="18"/>
<text text-anchor="middle" x="655.6909" y="-158.3" font-family="Times,serif" font-size="14.00" fill="#000000">Mix batter</text>
</g>
<!-- Mix wet ingredients&#45;&gt;Mix batter -->
<g id="edge18" class="edge">
<title>Mix wet ingredients&#45;&gt;Mix batter</title>
<path fill="none" stroke="#000000" d="M522.0473,-217.3008C548.6296,-206.3012 583.4601,-191.8886 610.8983,-180.5348"/>
<polygon fill="#000000" stroke="#000000" points="612.3677,-183.7147 620.2697,-176.6571 609.6912,-177.2466 612.3677,-183.7147"/>
</g>
<!-- Reduce banana liquid&#45;&gt;Mix wet ingredients -->
<g id="edge7" class="edge">
<title>Reduce banana liquid&#45;&gt;Mix wet ingredients</title>
<path fill="none" stroke="#000000" d="M235.1721,-291.256C285.7615,-279.5062 356.6155,-263.0498 409.3864,-250.7933"/>
<polygon fill="#000000" stroke="#000000" points="410.4051,-254.1499 419.354,-248.4783 408.8214,-247.3314 410.4051,-254.1499"/>
</g>
<!-- Melt butter -->
<g id="node9" class="node">
<title>Melt butter</title>
<ellipse fill="none" stroke="#000000" cx="364.6909" cy="-306" rx="64.189" ry="18"/>
<text text-anchor="middle" x="364.6909" y="-302.3" font-family="Times,serif" font-size="14.00" fill="#000000">Melt butter</text>
</g>
<!-- Melt butter&#45;&gt;Mix wet ingredients -->
<g id="edge8" class="edge">
<title>Melt butter&#45;&gt;Mix wet ingredients</title>
<path fill="none" stroke="#000000" d="M391.5331,-289.4817C407.2747,-279.7946 427.3928,-267.4142 444.6292,-256.8072"/>
<polygon fill="#000000" stroke="#000000" points="446.6594,-259.6675 453.3416,-251.4457 442.9907,-253.7059 446.6594,-259.6675"/>
</g>
<!-- Flour -->
<g id="node10" class="node">
<title>Flour</title>
<ellipse fill="none" stroke="#000000" cx="830.6909" cy="-306" rx="35.9954" ry="18"/>
<text text-anchor="middle" x="830.6909" y="-302.3" font-family="Times,serif" font-size="14.00" fill="#000000">Flour</text>
</g>
<!-- Mix dry ingredients -->
<g id="node11" class="node">
<title>Mix dry ingredients</title>
<ellipse fill="none" stroke="#000000" cx="890.6909" cy="-234" rx="102.8821" ry="18"/>
<text text-anchor="middle" x="890.6909" y="-230.3" font-family="Times,serif" font-size="14.00" fill="#000000">Mix dry ingredients</text>
</g>
<!-- Flour&#45;&gt;Mix dry ingredients -->
<g id="edge9" class="edge">
<title>Flour&#45;&gt;Mix dry ingredients</title>
<path fill="none" stroke="#000000" d="M844.6069,-289.3008C851.9092,-280.538 861.0166,-269.6091 869.2023,-259.7863"/>
<polygon fill="#000000" stroke="#000000" points="872.0885,-261.79 875.8016,-251.8671 866.711,-257.3087 872.0885,-261.79"/>
</g>
<!-- Mix dry ingredients&#45;&gt;Mix batter -->
<g id="edge12" class="edge">
<title>Mix dry ingredients&#45;&gt;Mix batter</title>
<path fill="none" stroke="#000000" d="M839.4095,-218.2883C800.3164,-206.3108 746.7032,-189.8846 707.4841,-177.8686"/>
<polygon fill="#000000" stroke="#000000" points="708.4275,-174.4971 697.8409,-174.914 706.3769,-181.19 708.4275,-174.4971"/>
</g>
<!-- Baking soda -->
<g id="node12" class="node">
<title>Baking soda</title>
<ellipse fill="none" stroke="#000000" cx="951.6909" cy="-306" rx="67.6881" ry="18"/>
<text text-anchor="middle" x="951.6909" y="-302.3" font-family="Times,serif" font-size="14.00" fill="#000000">Baking soda</text>
</g>
<!-- Baking soda&#45;&gt;Mix dry ingredients -->
<g id="edge10" class="edge">
<title>Baking soda&#45;&gt;Mix dry ingredients</title>
<path fill="none" stroke="#000000" d="M936.6122,-288.2022C929.2804,-279.5483 920.3352,-268.99 912.2941,-259.4988"/>
<polygon fill="#000000" stroke="#000000" points="914.9421,-257.2099 905.8075,-251.8425 909.6012,-261.7349 914.9421,-257.2099"/>
</g>
<!-- Salt -->
<g id="node13" class="node">
<title>Salt</title>
<ellipse fill="none" stroke="#000000" cx="1066.6909" cy="-306" rx="29.4969" ry="18"/>
<text text-anchor="middle" x="1066.6909" y="-302.3" font-family="Times,serif" font-size="14.00" fill="#000000">Salt</text>
</g>
<!-- Salt&#45;&gt;Mix dry ingredients -->
<g id="edge11" class="edge">
<title>Salt&#45;&gt;Mix dry ingredients</title>
<path fill="none" stroke="#000000" d="M1043.4958,-294.7002C1038.633,-292.4194 1033.5161,-290.0839 1028.6909,-288 1001.1506,-276.106 970.0685,-263.8439 944.3846,-254.0167"/>
<polygon fill="#000000" stroke="#000000" points="945.4149,-250.6639 934.824,-250.3754 942.9234,-257.2055 945.4149,-250.6639"/>
</g>
<!-- Assemble in pan -->
<g id="node15" class="node">
<title>Assemble in pan</title>
<ellipse fill="none" stroke="#000000" cx="655.6909" cy="-90" rx="87.1846" ry="18"/>
<text text-anchor="middle" x="655.6909" y="-86.3" font-family="Times,serif" font-size="14.00" fill="#000000">Assemble in pan</text>
</g>
<!-- Mix batter&#45;&gt;Assemble in pan -->
<g id="edge13" class="edge">
<title>Mix batter&#45;&gt;Assemble in pan</title>
<path fill="none" stroke="#000000" d="M655.6909,-143.8314C655.6909,-136.131 655.6909,-126.9743 655.6909,-118.4166"/>
<polygon fill="#000000" stroke="#000000" points="659.191,-118.4132 655.6909,-108.4133 652.191,-118.4133 659.191,-118.4132"/>
</g>
<!-- Assemble in pan&#45;&gt;Bake -->
<g id="edge14" class="edge">
<title>Assemble in pan&#45;&gt;Bake</title>
<path fill="none" stroke="#000000" d="M635.4212,-72.2022C624.4004,-62.5254 610.6677,-50.4675 598.9549,-40.1831"/>
<polygon fill="#000000" stroke="#000000" points="601.0507,-37.3655 591.2269,-33.3975 596.432,-42.6256 601.0507,-37.3655"/>
</g>
<!-- Eggs -->
<g id="node16" class="node">
<title>Eggs</title>
<ellipse fill="none" stroke="#000000" cx="481.6909" cy="-306" rx="34.394" ry="18"/>
<text text-anchor="middle" x="481.6909" y="-302.3" font-family="Times,serif" font-size="14.00" fill="#000000">Eggs</text>
</g>
<!-- Eggs&#45;&gt;Mix wet ingredients -->
<g id="edge15" class="edge">
<title>Eggs&#45;&gt;Mix wet ingredients</title>
<path fill="none" stroke="#000000" d="M481.6909,-287.8314C481.6909,-280.131 481.6909,-270.9743 481.6909,-262.4166"/>
<polygon fill="#000000" stroke="#000000" points="485.191,-262.4132 481.6909,-252.4133 478.191,-262.4133 485.191,-262.4132"/>
</g>
<!-- Brown sugar -->
<g id="node17" class="node">
<title>Brown sugar</title>
<ellipse fill="none" stroke="#000000" cx="604.6909" cy="-306" rx="70.3881" ry="18"/>
<text text-anchor="middle" x="604.6909" y="-302.3" font-family="Times,serif" font-size="14.00" fill="#000000">Brown sugar</text>
</g>
<!-- Brown sugar&#45;&gt;Mix wet ingredients -->
<g id="edge16" class="edge">
<title>Brown sugar&#45;&gt;Mix wet ingredients</title>
<path fill="none" stroke="#000000" d="M576.4722,-289.4817C559.7715,-279.7057 538.3851,-267.1868 520.1552,-256.5157"/>
<polygon fill="#000000" stroke="#000000" points="521.8923,-253.477 511.494,-251.4457 518.356,-259.5181 521.8923,-253.477"/>
</g>
<!-- Vanilla -->
<g id="node18" class="node">
<title>Vanilla</title>
<ellipse fill="none" stroke="#000000" cx="734.6909" cy="-306" rx="42.4939" ry="18"/>
<text text-anchor="middle" x="734.6909" y="-302.3" font-family="Times,serif" font-size="14.00" fill="#000000">Vanilla</text>
</g>
<!-- Vanilla&#45;&gt;Mix wet ingredients -->
<g id="edge17" class="edge">
<title>Vanilla&#45;&gt;Mix wet ingredients</title>
<path fill="none" stroke="#000000" d="M702.4424,-294.1906C696.2474,-292.0436 689.7901,-289.8884 683.6909,-288 640.2148,-274.5391 590.8732,-261.3111 551.8392,-251.3164"/>
<polygon fill="#000000" stroke="#000000" points="552.7018,-247.9245 542.1472,-248.8469 550.9734,-254.7077 552.7018,-247.9245"/>
</g>
</g>
</svg>
