<?xml version="1.0" encoding="UTF-8" standalone="no"?>
<!DOCTYPE svg PUBLIC "-//W3C//DTD SVG 1.1//EN"
 "http://www.w3.org/Graphics/SVG/1.1/DTD/svg11.dtd">
<!-- Generated by graphviz version 2.40.1 (0)
 -->
<!-- Title: %3 Pages: 1 -->
<svg width="1117pt" height="689pt"
 viewBox="0.00 0.00 1117.00 689.00" xmlns="http://www.w3.org/2000/svg" xmlns:xlink="http://www.w3.org/1999/xlink">
<g id="graph0" class="graph" transform="scale(1 1) rotate(0) translate(4 685)">
<title>%3</title>
<polygon fill="#ffffff" stroke="transparent" points="-4,4 -4,-685 1113,-685 1113,4 -4,4"/>
<g id="clust1" class="cluster">
<title>cluster_bananas</title>
<polygon fill="none" stroke="#000000" points="8,-307 8,-673 244,-673 244,-307 8,-307"/>
<text text-anchor="middle" x="126" y="-657.8" font-family="Times,serif" font-size="14.00" fill="#000000">Banana stuff</text>
</g>
<g id="clust2" class="cluster">
<title>cluster_wet</title>
<polygon fill="none" stroke="#000000" points="284,-235 284,-382 776,-382 776,-235 284,-235"/>
<text text-anchor="middle" x="530" y="-366.8" font-family="Times,serif" font-size="14.00" fill="#000000">Wet ingredients</text>
</g>
<g id="clust3" class="cluster">
<title>cluster_dry</title>
<polygon fill="none" stroke="#000000" points="784,-235 784,-382 1101,-382 1101,-235 784,-235"/>
<text text-anchor="middle" x="942.5" y="-366.8" font-family="Times,serif" font-size="14.00" fill="#000000">Dry ingredients</text>
</g>
<g id="clust4" class="cluster">
<title>cluster_assembly</title>
<polygon fill="none" stroke="#000000" points="573,-8 573,-227 897,-227 897,-8 573,-8"/>
<text text-anchor="middle" x="735" y="-211.8" font-family="Times,serif" font-size="14.00" fill="#000000">Assemble and bake</text>
</g>
<!-- Defrost bananas -->
<g id="node1" class="node">
<title>Defrost bananas</title>
<ellipse fill="none" stroke="#000000" cx="129" cy="-624" rx="87.1846" ry="18"/>
<text text-anchor="middle" x="129" y="-620.3" font-family="Times,serif" font-size="14.00" fill="#000000">Defrost bananas</text>
</g>
<!-- Peel bananas -->
<g id="node2" class="node">
<title>Peel bananas</title>
<ellipse fill="none" stroke="#000000" cx="129" cy="-552" rx="71.4873" ry="18"/>
<text text-anchor="middle" x="129" y="-548.3" font-family="Times,serif" font-size="14.00" fill="#000000">Peel bananas</text>
</g>
<!-- Defrost bananas&#45;&gt;Peel bananas -->
<g id="edge1" class="edge">
<title>Defrost bananas&#45;&gt;Peel bananas</title>
<path fill="none" stroke="#000000" d="M129,-605.8314C129,-598.131 129,-588.9743 129,-580.4166"/>
<polygon fill="#000000" stroke="#000000" points="132.5001,-580.4132 129,-570.4133 125.5001,-580.4133 132.5001,-580.4132"/>
</g>
<!-- Microwave bananas -->
<g id="node3" class="node">
<title>Microwave bananas</title>
<ellipse fill="none" stroke="#000000" cx="129" cy="-480" rx="102.8821" ry="18"/>
<text text-anchor="middle" x="129" y="-476.3" font-family="Times,serif" font-size="14.00" fill="#000000">Microwave bananas</text>
</g>
<!-- Peel bananas&#45;&gt;Microwave bananas -->
<g id="edge2" class="edge">
<title>Peel bananas&#45;&gt;Microwave bananas</title>
<path fill="none" stroke="#000000" d="M129,-533.8314C129,-526.131 129,-516.9743 129,-508.4166"/>
<polygon fill="#000000" stroke="#000000" points="132.5001,-508.4132 129,-498.4133 125.5001,-508.4133 132.5001,-508.4132"/>
</g>
<!-- Drain bananas -->
<g id="node4" class="node">
<title>Drain bananas</title>
<ellipse fill="none" stroke="#000000" cx="129" cy="-408" rx="77.9862" ry="18"/>
<text text-anchor="middle" x="129" y="-404.3" font-family="Times,serif" font-size="14.00" fill="#000000">Drain bananas</text>
</g>
<!-- Microwave bananas&#45;&gt;Drain bananas -->
<g id="edge3" class="edge">
<title>Microwave bananas&#45;&gt;Drain bananas</title>
<path fill="none" stroke="#000000" d="M129,-461.8314C129,-454.131 129,-444.9743 129,-436.4166"/>
<polygon fill="#000000" stroke="#000000" points="132.5001,-436.4132 129,-426.4133 125.5001,-436.4133 132.5001,-436.4132"/>
</g>
<!-- Reduce banana liquid -->
<g id="node5" class="node">
<title>Reduce banana liquid</title>
<ellipse fill="none" stroke="#000000" cx="126" cy="-333" rx="110.4804" ry="18"/>
<text text-anchor="middle" x="126" y="-329.3" font-family="Times,serif" font-size="14.00" fill="#000000">Reduce banana liquid</text>
</g>
<!-- Drain bananas&#45;&gt;Reduce banana liquid -->
<g id="edge4" class="edge">
<title>Drain bananas&#45;&gt;Reduce banana liquid</title>
<path fill="none" stroke="#000000" d="M128.2738,-389.8446C127.9336,-381.3401 127.5203,-371.0076 127.1399,-361.4964"/>
<polygon fill="#000000" stroke="#000000" points="130.6269,-361.1003 126.7299,-351.2482 123.6325,-361.3801 130.6269,-361.1003"/>
</g>
<!-- Mix wet ingredients -->
<g id="node6" class="node">
<title>Mix wet ingredients</title>
<ellipse fill="none" stroke="#000000" cx="464" cy="-261" rx="104.7816" ry="18"/>
<text text-anchor="middle" x="464" y="-257.3" font-family="Times,serif" font-size="14.00" fill="#000000">Mix wet ingredients</text>
</g>
<!-- Drain bananas&#45;&gt;Mix wet ingredients -->
<g id="edge5" class="edge">
<title>Drain bananas&#45;&gt;Mix wet ingredients</title>
<path fill="none" stroke="#000000" d="M194.7865,-398.2335C216.1942,-394.0101 236.6109,-388.5265 245,-382 274.4936,-359.055 253.835,-330.3613 283,-307 298.3384,-294.7139 339.7378,-283.7486 379.0767,-275.6083"/>
<polygon fill="#000000" stroke="#000000" points="379.9076,-279.0113 389.0166,-273.6005 378.5216,-272.1499 379.9076,-279.0113"/>
</g>
<!-- Reduce banana liquid&#45;&gt;Mix wet ingredients -->
<g id="edge6" class="edge">
<title>Reduce banana liquid&#45;&gt;Mix wet ingredients</title>
<path fill="none" stroke="#000000" d="M193.182,-318.689C249.4179,-306.7098 329.6339,-289.6224 388.1645,-277.1543"/>
<polygon fill="#000000" stroke="#000000" points="389.0448,-280.5454 398.0961,-275.0387 387.5863,-273.699 389.0448,-280.5454"/>
</g>
<!-- Mix batter -->
<g id="node17" class="node">
<title>Mix batter</title>
<ellipse fill="none" stroke="#000000" cx="668" cy="-178" rx="59.5901" ry="18"/>
<text text-anchor="middle" x="668" y="-174.3" font-family="Times,serif" font-size="14.00" fill="#000000">Mix batter</text>
</g>
<!-- Mix wet ingredients&#45;&gt;Mix batter -->
<g id="edge18" class="edge">
<title>Mix wet ingredients&#45;&gt;Mix batter</title>
<path fill="none" stroke="#000000" d="M504.7921,-244.4032C538.9086,-230.5225 587.5223,-210.7434 622.8129,-196.3849"/>
<polygon fill="#000000" stroke="#000000" points="624.4466,-199.4989 632.3903,-192.4883 621.8085,-193.015 624.4466,-199.4989"/>
</g>
<!-- Melt butter -->
<g id="node7" class="node">
<title>Melt butter</title>
<ellipse fill="none" stroke="#000000" cx="704" cy="-333" rx="64.189" ry="18"/>
<text text-anchor="middle" x="704" y="-329.3" font-family="Times,serif" font-size="14.00" fill="#000000">Melt butter</text>
</g>
<!-- Melt butter&#45;&gt;Mix wet ingredients -->
<g id="edge7" class="edge">
<title>Melt butter&#45;&gt;Mix wet ingredients</title>
<path fill="none" stroke="#000000" d="M664.6088,-318.6055C653.4705,-314.6865 641.3033,-310.5474 630,-307 597.9557,-296.9434 562.0799,-286.8576 531.9012,-278.7036"/>
<polygon fill="#000000" stroke="#000000" points="532.4646,-275.2308 521.8989,-276.0152 530.6476,-281.9909 532.4646,-275.2308"/>
</g>
<!-- Eggs -->
<g id="node8" class="node">
<title>Eggs</title>
<ellipse fill="none" stroke="#000000" cx="587" cy="-333" rx="34.394" ry="18"/>
<text text-anchor="middle" x="587" y="-329.3" font-family="Times,serif" font-size="14.00" fill="#000000">Eggs</text>
</g>
<!-- Eggs&#45;&gt;Mix wet ingredients -->
<g id="edge8" class="edge">
<title>Eggs&#45;&gt;Mix wet ingredients</title>
<path fill="none" stroke="#000000" d="M564.1796,-319.4776C557.3711,-315.4534 549.888,-311.0404 543,-307 530.0013,-299.3752 515.7769,-291.0782 503.0244,-283.6566"/>
<polygon fill="#000000" stroke="#000000" points="504.4412,-280.4317 494.0373,-278.4294 500.9217,-286.4826 504.4412,-280.4317"/>
</g>
<!-- Brown sugar -->
<g id="node9" class="node">
<title>Brown sugar</title>
<ellipse fill="none" stroke="#000000" cx="464" cy="-333" rx="70.3881" ry="18"/>
<text text-anchor="middle" x="464" y="-329.3" font-family="Times,serif" font-size="14.00" fill="#000000">Brown sugar</text>
</g>
<!-- Brown sugar&#45;&gt;Mix wet ingredients -->
<g id="edge9" class="edge">
<title>Brown sugar&#45;&gt;Mix wet ingredients</title>
<path fill="none" stroke="#000000" d="M464,-314.8314C464,-307.131 464,-297.9743 464,-289.4166"/>
<polygon fill="#000000" stroke="#000000" points="467.5001,-289.4132 464,-279.4133 460.5001,-289.4133 467.5001,-289.4132"/>
</g>
<!-- Vanilla -->
<g id="node10" class="node">
<title>Vanilla</title>
<ellipse fill="none" stroke="#000000" cx="334" cy="-333" rx="42.4939" ry="18"/>
<text text-anchor="middle" x="334" y="-329.3" font-family="Times,serif" font-size="14.00" fill="#000000">Vanilla</text>
</g>
<!-- Vanilla&#45;&gt;Mix wet ingredients -->
<g id="edge10" class="edge">
<title>Vanilla&#45;&gt;Mix wet ingredients</title>
<path fill="none" stroke="#000000" d="M359.995,-318.6028C378.1966,-308.5219 402.8736,-294.8546 423.6226,-283.3629"/>
<polygon fill="#000000" stroke="#000000" points="425.4901,-286.3296 432.5423,-278.4227 422.0986,-280.206 425.4901,-286.3296"/>
</g>
<!-- Flour -->
<g id="node11" class="node">
<title>Flour</title>
<ellipse fill="none" stroke="#000000" cx="1057" cy="-333" rx="35.9954" ry="18"/>
<text text-anchor="middle" x="1057" y="-329.3" font-family="Times,serif" font-size="14.00" fill="#000000">Flour</text>
</g>
<!-- Mix dry ingredients -->
<g id="node12" class="node">
<title>Mix dry ingredients</title>
<ellipse fill="none" stroke="#000000" cx="915" cy="-261" rx="102.8821" ry="18"/>
<text text-anchor="middle" x="915" y="-257.3" font-family="Times,serif" font-size="14.00" fill="#000000">Mix dry ingredients</text>
</g>
<!-- Flour&#45;&gt;Mix dry ingredients -->
<g id="edge11" class="edge">
<title>Flour&#45;&gt;Mix dry ingredients</title>
<path fill="none" stroke="#000000" d="M1033.9418,-318.8192C1027.2594,-314.8617 1019.903,-310.6491 1013,-307 996.7486,-298.4091 978.6106,-289.6683 962.3997,-282.146"/>
<polygon fill="#000000" stroke="#000000" points="963.6538,-278.8703 953.1064,-277.8682 960.7267,-285.229 963.6538,-278.8703"/>
</g>
<!-- Mix dry ingredients&#45;&gt;Mix batter -->
<g id="edge15" class="edge">
<title>Mix dry ingredients&#45;&gt;Mix batter</title>
<path fill="none" stroke="#000000" d="M867.3759,-244.9968C824.3672,-230.5445 761.3142,-209.3566 717.6809,-194.6944"/>
<polygon fill="#000000" stroke="#000000" points="718.7253,-191.3531 708.1313,-191.4854 716.4955,-197.9885 718.7253,-191.3531"/>
</g>
<!-- Baking soda -->
<g id="node13" class="node">
<title>Baking soda</title>
<ellipse fill="none" stroke="#000000" cx="936" cy="-333" rx="67.6881" ry="18"/>
<text text-anchor="middle" x="936" y="-329.3" font-family="Times,serif" font-size="14.00" fill="#000000">Baking soda</text>
</g>
<!-- Baking soda&#45;&gt;Mix dry ingredients -->
<g id="edge12" class="edge">
<title>Baking soda&#45;&gt;Mix dry ingredients</title>
<path fill="none" stroke="#000000" d="M930.7008,-314.8314C928.4302,-307.0463 925.7254,-297.7729 923.206,-289.1347"/>
<polygon fill="#000000" stroke="#000000" points="926.5306,-288.0332 920.3705,-279.4133 919.8106,-289.9933 926.5306,-288.0332"/>
</g>
<!-- Salt -->
<g id="node14" class="node">
<title>Salt</title>
<ellipse fill="none" stroke="#000000" cx="821" cy="-333" rx="29.4969" ry="18"/>
<text text-anchor="middle" x="821" y="-329.3" font-family="Times,serif" font-size="14.00" fill="#000000">Salt</text>
</g>
<!-- Salt&#45;&gt;Mix dry ingredients -->
<g id="edge13" class="edge">
<title>Salt&#45;&gt;Mix dry ingredients</title>
<path fill="none" stroke="#000000" d="M839.5714,-318.7751C852.0949,-309.1827 868.9318,-296.2863 883.5211,-285.1115"/>
<polygon fill="#000000" stroke="#000000" points="885.9912,-287.6283 891.8017,-278.7689 881.7347,-282.0711 885.9912,-287.6283"/>
</g>
<!-- Heat oven -->
<g id="node15" class="node">
<title>Heat oven</title>
<ellipse fill="none" stroke="#000000" cx="831" cy="-106" rx="57.6901" ry="18"/>
<text text-anchor="middle" x="831" y="-102.3" font-family="Times,serif" font-size="14.00" fill="#000000">Heat oven</text>
</g>
<!-- Bake -->
<g id="node16" class="node">
<title>Bake</title>
<ellipse fill="none" stroke="#000000" cx="749" cy="-34" rx="33.5952" ry="18"/>
<text text-anchor="middle" x="749" y="-30.3" font-family="Times,serif" font-size="14.00" fill="#000000">Bake</text>
</g>
<!-- Heat oven&#45;&gt;Bake -->
<g id="edge14" class="edge">
<title>Heat oven&#45;&gt;Bake</title>
<path fill="none" stroke="#000000" d="M811.5671,-88.937C800.3783,-79.1126 786.1936,-66.6578 774.1602,-56.0919"/>
<polygon fill="#000000" stroke="#000000" points="776.44,-53.4359 766.6162,-49.4679 771.8213,-58.696 776.44,-53.4359"/>
</g>
<!-- Assemble in pan -->
<g id="node18" class="node">
<title>Assemble in pan</title>
<ellipse fill="none" stroke="#000000" cx="668" cy="-106" rx="87.1846" ry="18"/>
<text text-anchor="middle" x="668" y="-102.3" font-family="Times,serif" font-size="14.00" fill="#000000">Assemble in pan</text>
</g>
<!-- Mix batter&#45;&gt;Assemble in pan -->
<g id="edge16" class="edge">
<title>Mix batter&#45;&gt;Assemble in pan</title>
<path fill="none" stroke="#000000" d="M668,-159.8314C668,-152.131 668,-142.9743 668,-134.4166"/>
<polygon fill="#000000" stroke="#000000" points="671.5001,-134.4132 668,-124.4133 664.5001,-134.4133 671.5001,-134.4132"/>
</g>
<!-- Assemble in pan&#45;&gt;Bake -->
<g id="edge17" class="edge">
<title>Assemble in pan&#45;&gt;Bake</title>
<path fill="none" stroke="#000000" d="M688.0225,-88.2022C698.8328,-78.5931 712.2845,-66.636 723.801,-56.3991"/>
<polygon fill="#000000" stroke="#000000" points="726.2598,-58.8964 731.4086,-49.6368 721.6092,-53.6645 726.2598,-58.8964"/>
</g>
</g>
</svg>
