<?xml version="1.0" encoding="UTF-8" standalone="no"?>
<!DOCTYPE svg PUBLIC "-//W3C//DTD SVG 1.1//EN"
 "http://www.w3.org/Graphics/SVG/1.1/DTD/svg11.dtd">
<!-- Generated by graphviz version 2.40.1 (0)
 -->
<!-- Title: %3 Pages: 1 -->
<svg width="927pt" height="620pt"
 viewBox="0.00 0.00 927.09 620.00" xmlns="http://www.w3.org/2000/svg" xmlns:xlink="http://www.w3.org/1999/xlink">
<g id="graph0" class="graph" transform="scale(1 1) rotate(0) translate(4 616)">
<title>%3</title>
<polygon fill="#ffffff" stroke="transparent" points="-4,4 -4,-616 923.0923,-616 923.0923,4 -4,4"/>
<!-- Heat oven -->
<g id="node1" class="node">
<title>Heat oven</title>
<ellipse fill="none" stroke="#000000" cx="57.8449" cy="-594" rx="57.6901" ry="18"/>
<text text-anchor="middle" x="57.8449" y="-590.3" font-family="Times,serif" font-size="14.00" fill="#000000">Heat oven</text>
</g>
<!-- Bake -->
<g id="node2" class="node">
<title>Bake</title>
<ellipse fill="none" stroke="#000000" cx="223.8449" cy="-18" rx="33.5952" ry="18"/>
<text text-anchor="middle" x="223.8449" y="-14.3" font-family="Times,serif" font-size="14.00" fill="#000000">Bake</text>
</g>
<!-- Heat oven&#45;&gt;Bake -->
<g id="edge1" class="edge">
<title>Heat oven&#45;&gt;Bake</title>
<path fill="none" stroke="#000000" d="M57.8449,-575.8146C57.8449,-548.4983 57.8449,-495.25 57.8449,-450 57.8449,-450 57.8449,-450 57.8449,-162 57.8449,-94.5786 136.948,-51.6207 185.9432,-31.4795"/>
<polygon fill="#000000" stroke="#000000" points="187.3097,-34.7028 195.3085,-27.755 184.7229,-28.1983 187.3097,-34.7028"/>
</g>
<!-- Defrost bananas -->
<g id="node3" class="node">
<title>Defrost bananas</title>
<ellipse fill="none" stroke="#000000" cx="220.8449" cy="-594" rx="87.1846" ry="18"/>
<text text-anchor="middle" x="220.8449" y="-590.3" font-family="Times,serif" font-size="14.00" fill="#000000">Defrost bananas</text>
</g>
<!-- Peel bananas -->
<g id="node4" class="node">
<title>Peel bananas</title>
<ellipse fill="none" stroke="#000000" cx="220.8449" cy="-522" rx="71.4873" ry="18"/>
<text text-anchor="middle" x="220.8449" y="-518.3" font-family="Times,serif" font-size="14.00" fill="#000000">Peel bananas</text>
</g>
<!-- Defrost bananas&#45;&gt;Peel bananas -->
<g id="edge2" class="edge">
<title>Defrost bananas&#45;&gt;Peel bananas</title>
<path fill="none" stroke="#000000" d="M220.8449,-575.8314C220.8449,-568.131 220.8449,-558.9743 220.8449,-550.4166"/>
<polygon fill="#000000" stroke="#000000" points="224.345,-550.4132 220.8449,-540.4133 217.345,-550.4133 224.345,-550.4132"/>
</g>
<!-- Microwave bananas -->
<g id="node5" class="node">
<title>Microwave bananas</title>
<ellipse fill="none" stroke="#000000" cx="220.8449" cy="-450" rx="102.8821" ry="18"/>
<text text-anchor="middle" x="220.8449" y="-446.3" font-family="Times,serif" font-size="14.00" fill="#000000">Microwave bananas</text>
</g>
<!-- Peel bananas&#45;&gt;Microwave bananas -->
<g id="edge3" class="edge">
<title>Peel bananas&#45;&gt;Microwave bananas</title>
<path fill="none" stroke="#000000" d="M220.8449,-503.8314C220.8449,-496.131 220.8449,-486.9743 220.8449,-478.4166"/>
<polygon fill="#000000" stroke="#000000" points="224.345,-478.4132 220.8449,-468.4133 217.345,-478.4133 224.345,-478.4132"/>
</g>
<!-- Drain bananas -->
<g id="node6" class="node">
<title>Drain bananas</title>
<ellipse fill="none" stroke="#000000" cx="220.8449" cy="-378" rx="77.9862" ry="18"/>
<text text-anchor="middle" x="220.8449" y="-374.3" font-family="Times,serif" font-size="14.00" fill="#000000">Drain bananas</text>
</g>
<!-- Microwave bananas&#45;&gt;Drain bananas -->
<g id="edge4" class="edge">
<title>Microwave bananas&#45;&gt;Drain bananas</title>
<path fill="none" stroke="#000000" d="M220.8449,-431.8314C220.8449,-424.131 220.8449,-414.9743 220.8449,-406.4166"/>
<polygon fill="#000000" stroke="#000000" points="224.345,-406.4132 220.8449,-396.4133 217.345,-406.4133 224.345,-406.4132"/>
</g>
<!-- Mix wet ingredients -->
<g id="node7" class="node">
<title>Mix wet ingredients</title>
<ellipse fill="none" stroke="#000000" cx="420.8449" cy="-234" rx="104.7816" ry="18"/>
<text text-anchor="middle" x="420.8449" y="-230.3" font-family="Times,serif" font-size="14.00" fill="#000000">Mix wet ingredients</text>
</g>
<!-- Drain bananas&#45;&gt;Mix wet ingredients -->
<g id="edge5" class="edge">
<title>Drain bananas&#45;&gt;Mix wet ingredients</title>
<path fill="none" stroke="#000000" d="M178.4053,-362.8213C161.0416,-354.2682 142.7366,-341.6755 132.8449,-324 125.0312,-310.0377 122.6267,-300.3121 132.8449,-288 155.5735,-260.6137 239.4902,-247.0326 310.9196,-240.347"/>
<polygon fill="#000000" stroke="#000000" points="311.2618,-243.8305 320.9081,-239.4487 310.6347,-236.8586 311.2618,-243.8305"/>
</g>
<!-- Reduce banana liquid -->
<g id="node8" class="node">
<title>Reduce banana liquid</title>
<ellipse fill="none" stroke="#000000" cx="251.8449" cy="-306" rx="110.4804" ry="18"/>
<text text-anchor="middle" x="251.8449" y="-302.3" font-family="Times,serif" font-size="14.00" fill="#000000">Reduce banana liquid</text>
</g>
<!-- Drain bananas&#45;&gt;Reduce banana liquid -->
<g id="edge6" class="edge">
<title>Drain bananas&#45;&gt;Reduce banana liquid</title>
<path fill="none" stroke="#000000" d="M228.6675,-359.8314C232.0558,-351.9617 236.099,-342.5712 239.8525,-333.8533"/>
<polygon fill="#000000" stroke="#000000" points="243.177,-334.9822 243.9169,-324.4133 236.7476,-332.214 243.177,-334.9822"/>
</g>
<!-- Mix batter -->
<g id="node14" class="node">
<title>Mix batter</title>
<ellipse fill="none" stroke="#000000" cx="420.8449" cy="-162" rx="59.5901" ry="18"/>
<text text-anchor="middle" x="420.8449" y="-158.3" font-family="Times,serif" font-size="14.00" fill="#000000">Mix batter</text>
</g>
<!-- Mix wet ingredients&#45;&gt;Mix batter -->
<g id="edge18" class="edge">
<title>Mix wet ingredients&#45;&gt;Mix batter</title>
<path fill="none" stroke="#000000" d="M420.8449,-215.8314C420.8449,-208.131 420.8449,-198.9743 420.8449,-190.4166"/>
<polygon fill="#000000" stroke="#000000" points="424.345,-190.4132 420.8449,-180.4133 417.345,-190.4133 424.345,-190.4132"/>
</g>
<!-- Reduce banana liquid&#45;&gt;Mix wet ingredients -->
<g id="edge7" class="edge">
<title>Reduce banana liquid&#45;&gt;Mix wet ingredients</title>
<path fill="none" stroke="#000000" d="M291.4679,-289.1192C315.5174,-278.8732 346.3993,-265.7164 371.9597,-254.8268"/>
<polygon fill="#000000" stroke="#000000" points="373.6421,-257.9145 381.4701,-250.775 370.8984,-251.4746 373.6421,-257.9145"/>
</g>
<!-- Melt butter -->
<g id="node9" class="node">
<title>Melt butter</title>
<ellipse fill="none" stroke="#000000" cx="389.8449" cy="-594" rx="64.189" ry="18"/>
<text text-anchor="middle" x="389.8449" y="-590.3" font-family="Times,serif" font-size="14.00" fill="#000000">Melt butter</text>
</g>
<!-- Melt butter&#45;&gt;Mix wet ingredients -->
<g id="edge8" class="edge">
<title>Melt butter&#45;&gt;Mix wet ingredients</title>
<path fill="none" stroke="#000000" d="M389.8449,-575.8146C389.8449,-548.4983 389.8449,-495.25 389.8449,-450 389.8449,-450 389.8449,-450 389.8449,-378 389.8449,-337.0037 402.0016,-290.8829 411.0895,-262.1326"/>
<polygon fill="#000000" stroke="#000000" points="414.5008,-262.9603 414.2706,-252.3679 407.8451,-260.7919 414.5008,-262.9603"/>
</g>
<!-- Flour -->
<g id="node10" class="node">
<title>Flour</title>
<ellipse fill="none" stroke="#000000" cx="653.8449" cy="-594" rx="35.9954" ry="18"/>
<text text-anchor="middle" x="653.8449" y="-590.3" font-family="Times,serif" font-size="14.00" fill="#000000">Flour</text>
</g>
<!-- Mix dry ingredients -->
<g id="node11" class="node">
<title>Mix dry ingredients</title>
<ellipse fill="none" stroke="#000000" cx="774.8449" cy="-522" rx="102.8821" ry="18"/>
<text text-anchor="middle" x="774.8449" y="-518.3" font-family="Times,serif" font-size="14.00" fill="#000000">Mix dry ingredients</text>
</g>
<!-- Flour&#45;&gt;Mix dry ingredients -->
<g id="edge9" class="edge">
<title>Flour&#45;&gt;Mix dry ingredients</title>
<path fill="none" stroke="#000000" d="M677.1749,-580.1177C694.0881,-570.0536 717.3289,-556.2244 736.8966,-544.5808"/>
<polygon fill="#000000" stroke="#000000" points="738.7888,-547.5277 745.5927,-539.4062 735.2093,-541.5121 738.7888,-547.5277"/>
</g>
<!-- Mix dry ingredients&#45;&gt;Mix batter -->
<g id="edge12" class="edge">
<title>Mix dry ingredients&#45;&gt;Mix batter</title>
<path fill="none" stroke="#000000" d="M774.8449,-503.8146C774.8449,-476.4983 774.8449,-423.25 774.8449,-378 774.8449,-378 774.8449,-378 774.8449,-306 774.8449,-243.4581 582.8618,-194.9365 481.6587,-173.7034"/>
<polygon fill="#000000" stroke="#000000" points="482.0665,-170.2136 471.5644,-171.6128 480.6468,-177.0682 482.0665,-170.2136"/>
</g>
<!-- Baking soda -->
<g id="node12" class="node">
<title>Baking soda</title>
<ellipse fill="none" stroke="#000000" cx="774.8449" cy="-594" rx="67.6881" ry="18"/>
<text text-anchor="middle" x="774.8449" y="-590.3" font-family="Times,serif" font-size="14.00" fill="#000000">Baking soda</text>
</g>
<!-- Baking soda&#45;&gt;Mix dry ingredients -->
<g id="edge10" class="edge">
<title>Baking soda&#45;&gt;Mix dry ingredients</title>
<path fill="none" stroke="#000000" d="M774.8449,-575.8314C774.8449,-568.131 774.8449,-558.9743 774.8449,-550.4166"/>
<polygon fill="#000000" stroke="#000000" points="778.345,-550.4132 774.8449,-540.4133 771.345,-550.4133 778.345,-550.4132"/>
</g>
<!-- Salt -->
<g id="node13" class="node">
<title>Salt</title>
<ellipse fill="none" stroke="#000000" cx="889.8449" cy="-594" rx="29.4969" ry="18"/>
<text text-anchor="middle" x="889.8449" y="-590.3" font-family="Times,serif" font-size="14.00" fill="#000000">Salt</text>
</g>
<!-- Salt&#45;&gt;Mix dry ingredients -->
<g id="edge11" class="edge">
<title>Salt&#45;&gt;Mix dry ingredients</title>
<path fill="none" stroke="#000000" d="M869.2852,-581.1278C853.1499,-571.0258 830.2847,-556.7101 811.0944,-544.6954"/>
<polygon fill="#000000" stroke="#000000" points="812.9064,-541.7005 802.5732,-539.3603 809.1917,-547.6336 812.9064,-541.7005"/>
</g>
<!-- Assemble in pan -->
<g id="node15" class="node">
<title>Assemble in pan</title>
<ellipse fill="none" stroke="#000000" cx="337.8449" cy="-90" rx="87.1846" ry="18"/>
<text text-anchor="middle" x="337.8449" y="-86.3" font-family="Times,serif" font-size="14.00" fill="#000000">Assemble in pan</text>
</g>
<!-- Mix batter&#45;&gt;Assemble in pan -->
<g id="edge13" class="edge">
<title>Mix batter&#45;&gt;Assemble in pan</title>
<path fill="none" stroke="#000000" d="M401.175,-144.937C390.6586,-135.8144 377.5277,-124.4237 365.9534,-114.3833"/>
<polygon fill="#000000" stroke="#000000" points="368.0877,-111.6014 358.2403,-107.6924 363.5007,-116.8891 368.0877,-111.6014"/>
</g>
<!-- Assemble in pan&#45;&gt;Bake -->
<g id="edge14" class="edge">
<title>Assemble in pan&#45;&gt;Bake</title>
<path fill="none" stroke="#000000" d="M310.539,-72.7542C293.7111,-62.126 272.0925,-48.4722 254.6535,-37.4581"/>
<polygon fill="#000000" stroke="#000000" points="256.2864,-34.3498 245.9625,-31.969 252.5484,-40.2682 256.2864,-34.3498"/>
</g>
<!-- Eggs -->
<g id="node16" class="node">
<title>Eggs</title>
<ellipse fill="none" stroke="#000000" cx="451.8449" cy="-306" rx="34.394" ry="18"/>
<text text-anchor="middle" x="451.8449" y="-302.3" font-family="Times,serif" font-size="14.00" fill="#000000">Eggs</text>
</g>
<!-- Eggs&#45;&gt;Mix wet ingredients -->
<g id="edge15" class="edge">
<title>Eggs&#45;&gt;Mix wet ingredients</title>
<path fill="none" stroke="#000000" d="M444.1819,-288.2022C440.7058,-280.1287 436.5161,-270.3976 432.6516,-261.422"/>
<polygon fill="#000000" stroke="#000000" points="435.8043,-259.8938 428.635,-252.0931 429.3749,-262.6621 435.8043,-259.8938"/>
</g>
<!-- Brown sugar -->
<g id="node17" class="node">
<title>Brown sugar</title>
<ellipse fill="none" stroke="#000000" cx="574.8449" cy="-306" rx="70.3881" ry="18"/>
<text text-anchor="middle" x="574.8449" y="-302.3" font-family="Times,serif" font-size="14.00" fill="#000000">Brown sugar</text>
</g>
<!-- Brown sugar&#45;&gt;Mix wet ingredients -->
<g id="edge16" class="edge">
<title>Brown sugar&#45;&gt;Mix wet ingredients</title>
<path fill="none" stroke="#000000" d="M541.0489,-290.1993C519.0848,-279.9304 490.1863,-266.4194 466.2291,-255.2186"/>
<polygon fill="#000000" stroke="#000000" points="467.5188,-251.958 456.9776,-250.8932 464.5541,-258.2992 467.5188,-251.958"/>
</g>
<!-- Vanilla -->
<g id="node18" class="node">
<title>Vanilla</title>
<ellipse fill="none" stroke="#000000" cx="704.8449" cy="-306" rx="42.4939" ry="18"/>
<text text-anchor="middle" x="704.8449" y="-302.3" font-family="Times,serif" font-size="14.00" fill="#000000">Vanilla</text>
</g>
<!-- Vanilla&#45;&gt;Mix wet ingredients -->
<g id="edge17" class="edge">
<title>Vanilla&#45;&gt;Mix wet ingredients</title>
<path fill="none" stroke="#000000" d="M672.9195,-294.1191C666.637,-291.9553 660.0649,-289.8123 653.8449,-288 602.6836,-273.0934 544.263,-259.5618 498.7183,-249.7727"/>
<polygon fill="#000000" stroke="#000000" points="499.419,-246.3435 488.9087,-247.6793 497.958,-253.1894 499.419,-246.3435"/>
</g>
</g>
</svg>
