<?xml version="1.0" encoding="UTF-8" standalone="no"?>
<!DOCTYPE svg PUBLIC "-//W3C//DTD SVG 1.1//EN"
 "http://www.w3.org/Graphics/SVG/1.1/DTD/svg11.dtd">
<!-- Generated by graphviz version 2.40.1 (0)
 -->
<!-- Title: %3 Pages: 1 -->
<svg width="521pt" height="137pt"
 viewBox="0.00 0.00 520.67 137.00" xmlns="http://www.w3.org/2000/svg" xmlns:xlink="http://www.w3.org/1999/xlink">
<g id="graph0" class="graph" transform="scale(1 1) rotate(0) translate(4 133)">
<title>%3</title>
<polygon fill="#ffffff" stroke="transparent" points="-4,4 -4,-133 516.6655,-133 516.6655,4 -4,4"/>
<g id="clust1" class="cluster">
<title>cluster_nginx_docker</title>
<polygon fill="none" stroke="#000000" points="125.4913,-46 125.4913,-121 337.3772,-121 337.3772,-46 125.4913,-46"/>
<text text-anchor="middle" x="231.4343" y="-105.8" font-family="Times,serif" font-size="14.00" fill="#000000">t2.nano</text>
</g>
<g id="clust2" class="cluster">
<title>cluster_postgresql</title>
<polygon fill="none" stroke="#000000" points="357.3772,-46 357.3772,-121 504.6655,-121 504.6655,-46 357.3772,-46"/>
<text text-anchor="middle" x="431.0213" y="-105.8" font-family="Times,serif" font-size="14.00" fill="#000000">t2.nano</text>
</g>
<!-- nginx -->
<g id="node1" class="node">
<title>nginx</title>
<ellipse fill="none" stroke="#000000" cx="169.8881" cy="-72" rx="36.2938" ry="18"/>
<text text-anchor="middle" x="169.8881" y="-68.3" font-family="Times,serif" font-size="14.00" fill="#000000">nginx</text>
</g>
<!-- Docker -->
<g id="node2" class="node">
<title>Docker</title>
<ellipse fill="none" stroke="#000000" cx="285.831" cy="-72" rx="43.5923" ry="18"/>
<text text-anchor="middle" x="285.831" y="-68.3" font-family="Times,serif" font-size="14.00" fill="#000000">Docker</text>
</g>
<!-- nginx&#45;&gt;Docker -->
<g id="edge1" class="edge">
<title>nginx&#45;&gt;Docker</title>
<path fill="none" stroke="#000000" d="M206.5732,-72C214.6795,-72 223.4306,-72 232.0571,-72"/>
<polygon fill="#000000" stroke="#000000" points="232.0806,-75.5001 242.0806,-72 232.0806,-68.5001 232.0806,-75.5001"/>
</g>
<!-- PostgreSQL -->
<g id="node3" class="node">
<title>PostgreSQL</title>
<ellipse fill="none" stroke="#000000" cx="431.0213" cy="-72" rx="65.7887" ry="18"/>
<text text-anchor="middle" x="431.0213" y="-68.3" font-family="Times,serif" font-size="14.00" fill="#000000">PostgreSQL</text>
</g>
<!-- Docker&#45;&gt;PostgreSQL -->
<g id="edge2" class="edge">
<title>Docker&#45;&gt;PostgreSQL</title>
<path fill="none" stroke="#000000" d="M329.3929,-72C337.4978,-72 346.1808,-72 354.9316,-72"/>
<polygon fill="#000000" stroke="#000000" points="355.2049,-75.5001 365.2049,-72 355.2049,-68.5001 355.2049,-75.5001"/>
</g>
<!-- Internet -->
<g id="node4" class="node">
<title>Internet</title>
<ellipse fill="none" stroke="#000000" cx="48.7457" cy="-45" rx="48.9926" ry="18"/>
<text text-anchor="middle" x="48.7457" y="-41.3" font-family="Times,serif" font-size="14.00" fill="#000000">Internet</text>
</g>
<!-- Internet&#45;&gt;nginx -->
<g id="edge3" class="edge">
<title>Internet&#45;&gt;nginx</title>
<path fill="none" stroke="#000000" d="M90.7754,-54.3675C102.2978,-56.9356 114.8108,-59.7245 126.4125,-62.3102"/>
<polygon fill="#000000" stroke="#000000" points="125.8035,-65.7603 136.3254,-64.5196 127.3263,-58.9279 125.8035,-65.7603"/>
</g>
<!-- S3 -->
<g id="node5" class="node">
<title>S3</title>
<ellipse fill="none" stroke="#000000" cx="169.8881" cy="-18" rx="27" ry="18"/>
<text text-anchor="middle" x="169.8881" y="-14.3" font-family="Times,serif" font-size="14.00" fill="#000000">S3</text>
</g>
<!-- Internet&#45;&gt;S3 -->
<g id="edge4" class="edge">
<title>Internet&#45;&gt;S3</title>
<path fill="none" stroke="#000000" d="M90.7754,-35.6325C104.9341,-32.4768 120.5887,-28.9878 134.21,-25.9519"/>
<polygon fill="#000000" stroke="#000000" points="135.1724,-29.3233 144.1715,-23.7317 133.6495,-22.491 135.1724,-29.3233"/>
</g>
</g>
</svg>
