<?xml version="1.0" encoding="UTF-8" standalone="no"?>
<!DOCTYPE svg PUBLIC "-//W3C//DTD SVG 1.1//EN"
 "http://www.w3.org/Graphics/SVG/1.1/DTD/svg11.dtd">
<!-- Generated by graphviz version 2.40.1 (0)
 -->
<!-- Title: %3 Pages: 1 -->
<svg width="839pt" height="548pt"
 viewBox="0.00 0.00 838.94 548.00" xmlns="http://www.w3.org/2000/svg" xmlns:xlink="http://www.w3.org/1999/xlink">
<g id="graph0" class="graph" transform="scale(1 1) rotate(0) translate(4 544)">
<title>%3</title>
<polygon fill="#ffffff" stroke="transparent" points="-4,4 -4,-544 834.942,-544 834.942,4 -4,4"/>
<!-- mergesort([&#45;75, 43, &#45;70, &#45;41]) -->
<g id="node1" class="node">
<title>mergesort([&#45;75, 43, &#45;70, &#45;41])</title>
<ellipse fill="none" stroke="#000000" cx="523.942" cy="-522" rx="145.6742" ry="18"/>
<text text-anchor="middle" x="523.942" y="-518.3" font-family="Times,serif" font-size="14.00" fill="#000000">mergesort([&#45;75, 43, &#45;70, &#45;41])</text>
</g>
<!-- mergesort([&#45;75, 43]) -->
<g id="node2" class="node">
<title>mergesort([&#45;75, 43])</title>
<ellipse fill="none" stroke="#000000" cx="199.942" cy="-450" rx="104.7816" ry="18"/>
<text text-anchor="middle" x="199.942" y="-446.3" font-family="Times,serif" font-size="14.00" fill="#000000">mergesort([&#45;75, 43])</text>
</g>
<!-- mergesort([&#45;75, 43, &#45;70, &#45;41])&#45;&gt;mergesort([&#45;75, 43]) -->
<g id="edge1" class="edge">
<title>mergesort([&#45;75, 43, &#45;70, &#45;41])&#45;&gt;mergesort([&#45;75, 43])</title>
<path fill="none" stroke="#000000" d="M452.8388,-506.1993C399.7912,-494.4109 327.5177,-478.3501 273.816,-466.4164"/>
<polygon fill="#000000" stroke="#000000" points="274.5348,-462.9909 264.0137,-464.2382 273.0163,-469.8242 274.5348,-462.9909"/>
</g>
<!-- mergesort([&#45;70, &#45;41]) -->
<g id="node4" class="node">
<title>mergesort([&#45;70, &#45;41])</title>
<ellipse fill="none" stroke="#000000" cx="523.942" cy="-450" rx="107.781" ry="18"/>
<text text-anchor="middle" x="523.942" y="-446.3" font-family="Times,serif" font-size="14.00" fill="#000000">mergesort([&#45;70, &#45;41])</text>
</g>
<!-- mergesort([&#45;75, 43, &#45;70, &#45;41])&#45;&gt;mergesort([&#45;70, &#45;41]) -->
<g id="edge3" class="edge">
<title>mergesort([&#45;75, 43, &#45;70, &#45;41])&#45;&gt;mergesort([&#45;70, &#45;41])</title>
<path fill="none" stroke="#000000" d="M523.942,-503.8314C523.942,-496.131 523.942,-486.9743 523.942,-478.4166"/>
<polygon fill="#000000" stroke="#000000" points="527.4421,-478.4132 523.942,-468.4133 520.4421,-478.4133 527.4421,-478.4132"/>
</g>
<!-- merge([&#45;75, 43], [&#45;70, &#45;41]) -->
<g id="node6" class="node">
<title>merge([&#45;75, 43], [&#45;70, &#45;41])</title>
<ellipse fill="none" stroke="#000000" cx="523.942" cy="-90" rx="133.7763" ry="18"/>
<text text-anchor="middle" x="523.942" y="-86.3" font-family="Times,serif" font-size="14.00" fill="#000000">merge([&#45;75, 43], [&#45;70, &#45;41])</text>
</g>
<!-- mergesort([&#45;75, 43, &#45;70, &#45;41])&#45;&gt;merge([&#45;75, 43], [&#45;70, &#45;41]) -->
<g id="edge5" class="edge">
<title>mergesort([&#45;75, 43, &#45;70, &#45;41])&#45;&gt;merge([&#45;75, 43], [&#45;70, &#45;41])</title>
<path fill="none" stroke="#000000" d="M587.9256,-505.7793C677.8984,-481.0642 830.942,-431.2043 830.942,-378 830.942,-378 830.942,-378 830.942,-234 830.942,-182.4532 687.2854,-134.0456 596.5114,-108.6031"/>
<polygon fill="#000000" stroke="#000000" points="597.3804,-105.212 586.8088,-105.9143 595.5109,-111.9578 597.3804,-105.212"/>
</g>
<!-- merge([&#45;75], [43]) -->
<g id="node3" class="node">
<title>merge([&#45;75], [43])</title>
<ellipse fill="none" stroke="#000000" cx="154.942" cy="-234" rx="92.8835" ry="18"/>
<text text-anchor="middle" x="154.942" y="-230.3" font-family="Times,serif" font-size="14.00" fill="#000000">merge([&#45;75], [43])</text>
</g>
<!-- mergesort([&#45;75, 43])&#45;&gt;merge([&#45;75], [43]) -->
<g id="edge2" class="edge">
<title>mergesort([&#45;75, 43])&#45;&gt;merge([&#45;75], [43])</title>
<path fill="none" stroke="#000000" d="M123.2469,-437.6895C77.1908,-428.5565 24.8905,-414.4919 10.942,-396 -29.1987,-342.7843 55.1572,-285.6493 110.9384,-255.4981"/>
<polygon fill="#000000" stroke="#000000" points="112.7634,-258.4922 119.9623,-250.7188 109.4871,-252.3062 112.7634,-258.4922"/>
</g>
<!-- mergesort([&#45;75]) -->
<g id="node10" class="node">
<title>mergesort([&#45;75])</title>
<ellipse fill="none" stroke="#000000" cx="106.942" cy="-378" rx="87.1846" ry="18"/>
<text text-anchor="middle" x="106.942" y="-374.3" font-family="Times,serif" font-size="14.00" fill="#000000">mergesort([&#45;75])</text>
</g>
<!-- mergesort([&#45;75, 43])&#45;&gt;mergesort([&#45;75]) -->
<g id="edge11" class="edge">
<title>mergesort([&#45;75, 43])&#45;&gt;mergesort([&#45;75])</title>
<path fill="none" stroke="#000000" d="M176.9532,-432.2022C165.128,-423.0473 150.55,-411.761 137.7633,-401.8617"/>
<polygon fill="#000000" stroke="#000000" points="139.7162,-398.9473 129.6663,-395.593 135.431,-404.4823 139.7162,-398.9473"/>
</g>
<!-- mergesort([43]) -->
<g id="node12" class="node">
<title>mergesort([43])</title>
<ellipse fill="none" stroke="#000000" cx="296.942" cy="-378" rx="84.485" ry="18"/>
<text text-anchor="middle" x="296.942" y="-374.3" font-family="Times,serif" font-size="14.00" fill="#000000">mergesort([43])</text>
</g>
<!-- mergesort([&#45;75, 43])&#45;&gt;mergesort([43]) -->
<g id="edge14" class="edge">
<title>mergesort([&#45;75, 43])&#45;&gt;mergesort([43])</title>
<path fill="none" stroke="#000000" d="M223.9195,-432.2022C236.4637,-422.8911 251.9779,-411.3754 265.4758,-401.3564"/>
<polygon fill="#000000" stroke="#000000" points="267.6313,-404.1152 273.575,-395.3446 263.4592,-398.4944 267.6313,-404.1152"/>
</g>
<!-- [&#45;75, 43] -->
<g id="node7" class="node">
<title>[&#45;75, 43]</title>
<ellipse fill="none" stroke="#000000" cx="302.942" cy="-162" rx="50.0912" ry="18"/>
<text text-anchor="middle" x="302.942" y="-158.3" font-family="Times,serif" font-size="14.00" fill="#000000">[&#45;75, 43]</text>
</g>
<!-- merge([&#45;75], [43])&#45;&gt;[&#45;75, 43] -->
<g id="edge6" class="edge">
<title>merge([&#45;75], [43])&#45;&gt;[&#45;75, 43]</title>
<path fill="none" stroke="#000000" d="M189.6414,-217.1192C211.8687,-206.3059 240.7602,-192.2506 263.8047,-181.0397"/>
<polygon fill="#000000" stroke="#000000" points="265.5029,-184.1059 272.9641,-176.5838 262.4406,-177.8112 265.5029,-184.1059"/>
</g>
<!-- merge([&#45;70], [&#45;41]) -->
<g id="node5" class="node">
<title>merge([&#45;70], [&#45;41])</title>
<ellipse fill="none" stroke="#000000" cx="523.942" cy="-234" rx="96.3833" ry="18"/>
<text text-anchor="middle" x="523.942" y="-230.3" font-family="Times,serif" font-size="14.00" fill="#000000">merge([&#45;70], [&#45;41])</text>
</g>
<!-- mergesort([&#45;70, &#45;41])&#45;&gt;merge([&#45;70], [&#45;41]) -->
<g id="edge4" class="edge">
<title>mergesort([&#45;70, &#45;41])&#45;&gt;merge([&#45;70], [&#45;41])</title>
<path fill="none" stroke="#000000" d="M473.9762,-434.0104C456.2212,-425.6468 438.1268,-413.4146 427.942,-396 419.8645,-382.1886 422.8249,-375.1597 427.942,-360 441.5132,-319.7948 473.6007,-282.2811 496.9533,-258.8206"/>
<polygon fill="#000000" stroke="#000000" points="499.5102,-261.2152 504.1938,-251.7118 494.6061,-256.2202 499.5102,-261.2152"/>
</g>
<!-- mergesort([&#45;70]) -->
<g id="node14" class="node">
<title>mergesort([&#45;70])</title>
<ellipse fill="none" stroke="#000000" cx="523.942" cy="-378" rx="87.1846" ry="18"/>
<text text-anchor="middle" x="523.942" y="-374.3" font-family="Times,serif" font-size="14.00" fill="#000000">mergesort([&#45;70])</text>
</g>
<!-- mergesort([&#45;70, &#45;41])&#45;&gt;mergesort([&#45;70]) -->
<g id="edge17" class="edge">
<title>mergesort([&#45;70, &#45;41])&#45;&gt;mergesort([&#45;70])</title>
<path fill="none" stroke="#000000" d="M523.942,-431.8314C523.942,-424.131 523.942,-414.9743 523.942,-406.4166"/>
<polygon fill="#000000" stroke="#000000" points="527.4421,-406.4132 523.942,-396.4133 520.4421,-406.4133 527.4421,-406.4132"/>
</g>
<!-- mergesort([&#45;41]) -->
<g id="node16" class="node">
<title>mergesort([&#45;41])</title>
<ellipse fill="none" stroke="#000000" cx="715.942" cy="-378" rx="87.1846" ry="18"/>
<text text-anchor="middle" x="715.942" y="-374.3" font-family="Times,serif" font-size="14.00" fill="#000000">mergesort([&#45;41])</text>
</g>
<!-- mergesort([&#45;70, &#45;41])&#45;&gt;mergesort([&#45;41]) -->
<g id="edge19" class="edge">
<title>mergesort([&#45;70, &#45;41])&#45;&gt;mergesort([&#45;41])</title>
<path fill="none" stroke="#000000" d="M567.9907,-433.4817C596.6623,-422.7299 634.1811,-408.6603 664.262,-397.38"/>
<polygon fill="#000000" stroke="#000000" points="665.6121,-400.6118 673.7465,-393.8233 663.1542,-394.0575 665.6121,-400.6118"/>
</g>
<!-- [&#45;70, &#45;41] -->
<g id="node8" class="node">
<title>[&#45;70, &#45;41]</title>
<ellipse fill="none" stroke="#000000" cx="523.942" cy="-162" rx="52.7911" ry="18"/>
<text text-anchor="middle" x="523.942" y="-158.3" font-family="Times,serif" font-size="14.00" fill="#000000">[&#45;70, &#45;41]</text>
</g>
<!-- merge([&#45;70], [&#45;41])&#45;&gt;[&#45;70, &#45;41] -->
<g id="edge7" class="edge">
<title>merge([&#45;70], [&#45;41])&#45;&gt;[&#45;70, &#45;41]</title>
<path fill="none" stroke="#000000" d="M523.942,-215.8314C523.942,-208.131 523.942,-198.9743 523.942,-190.4166"/>
<polygon fill="#000000" stroke="#000000" points="527.4421,-190.4132 523.942,-180.4133 520.4421,-190.4133 527.4421,-190.4132"/>
</g>
<!-- [&#45;75, &#45;70, &#45;41, 43] -->
<g id="node9" class="node">
<title>[&#45;75, &#45;70, &#45;41, 43]</title>
<ellipse fill="none" stroke="#000000" cx="523.942" cy="-18" rx="90.9839" ry="18"/>
<text text-anchor="middle" x="523.942" y="-14.3" font-family="Times,serif" font-size="14.00" fill="#000000">[&#45;75, &#45;70, &#45;41, 43]</text>
</g>
<!-- merge([&#45;75, 43], [&#45;70, &#45;41])&#45;&gt;[&#45;75, &#45;70, &#45;41, 43] -->
<g id="edge10" class="edge">
<title>merge([&#45;75, 43], [&#45;70, &#45;41])&#45;&gt;[&#45;75, &#45;70, &#45;41, 43]</title>
<path fill="none" stroke="#000000" d="M523.942,-71.8314C523.942,-64.131 523.942,-54.9743 523.942,-46.4166"/>
<polygon fill="#000000" stroke="#000000" points="527.4421,-46.4132 523.942,-36.4133 520.4421,-46.4133 527.4421,-46.4132"/>
</g>
<!-- [&#45;75, 43]&#45;&gt;merge([&#45;75, 43], [&#45;70, &#45;41]) -->
<g id="edge8" class="edge">
<title>[&#45;75, 43]&#45;&gt;merge([&#45;75, 43], [&#45;70, &#45;41])</title>
<path fill="none" stroke="#000000" d="M340.4316,-149.7862C373.9224,-138.8752 423.609,-122.6877 462.8376,-109.9073"/>
<polygon fill="#000000" stroke="#000000" points="464.1455,-113.1623 472.5694,-106.7368 461.9771,-106.5067 464.1455,-113.1623"/>
</g>
<!-- [&#45;70, &#45;41]&#45;&gt;merge([&#45;75, 43], [&#45;70, &#45;41]) -->
<g id="edge9" class="edge">
<title>[&#45;70, &#45;41]&#45;&gt;merge([&#45;75, 43], [&#45;70, &#45;41])</title>
<path fill="none" stroke="#000000" d="M523.942,-143.8314C523.942,-136.131 523.942,-126.9743 523.942,-118.4166"/>
<polygon fill="#000000" stroke="#000000" points="527.4421,-118.4132 523.942,-108.4133 520.4421,-118.4133 527.4421,-118.4132"/>
</g>
<!-- [&#45;75] -->
<g id="node11" class="node">
<title>[&#45;75]</title>
<ellipse fill="none" stroke="#000000" cx="130.942" cy="-306" rx="32.4942" ry="18"/>
<text text-anchor="middle" x="130.942" y="-302.3" font-family="Times,serif" font-size="14.00" fill="#000000">[&#45;75]</text>
</g>
<!-- mergesort([&#45;75])&#45;&gt;[&#45;75] -->
<g id="edge12" class="edge">
<title>mergesort([&#45;75])&#45;&gt;[&#45;75]</title>
<path fill="none" stroke="#000000" d="M112.9982,-359.8314C115.6618,-351.8406 118.848,-342.2819 121.7915,-333.4514"/>
<polygon fill="#000000" stroke="#000000" points="125.1289,-334.5071 124.9709,-323.9134 118.4881,-332.2934 125.1289,-334.5071"/>
</g>
<!-- [&#45;75]&#45;&gt;merge([&#45;75], [43]) -->
<g id="edge13" class="edge">
<title>[&#45;75]&#45;&gt;merge([&#45;75], [43])</title>
<path fill="none" stroke="#000000" d="M136.8746,-288.2022C139.5371,-280.2146 142.7405,-270.6045 145.7058,-261.7087"/>
<polygon fill="#000000" stroke="#000000" points="149.069,-262.6868 148.9109,-252.0931 142.4282,-260.4731 149.069,-262.6868"/>
</g>
<!-- [43] -->
<g id="node13" class="node">
<title>[43]</title>
<ellipse fill="none" stroke="#000000" cx="249.942" cy="-306" rx="29.4969" ry="18"/>
<text text-anchor="middle" x="249.942" y="-302.3" font-family="Times,serif" font-size="14.00" fill="#000000">[43]</text>
</g>
<!-- mergesort([43])&#45;&gt;[43] -->
<g id="edge15" class="edge">
<title>mergesort([43])&#45;&gt;[43]</title>
<path fill="none" stroke="#000000" d="M285.0819,-359.8314C279.4765,-351.2444 272.6891,-340.8466 266.5799,-331.4878"/>
<polygon fill="#000000" stroke="#000000" points="269.3882,-329.3869 260.9911,-322.9263 263.5265,-333.2133 269.3882,-329.3869"/>
</g>
<!-- [43]&#45;&gt;merge([&#45;75], [43]) -->
<g id="edge16" class="edge">
<title>[43]&#45;&gt;merge([&#45;75], [43])</title>
<path fill="none" stroke="#000000" d="M231.173,-291.7751C218.3068,-282.0239 200.9357,-268.8584 186.0254,-257.5579"/>
<polygon fill="#000000" stroke="#000000" points="188.1231,-254.7561 178.0393,-251.5053 183.8949,-260.3349 188.1231,-254.7561"/>
</g>
<!-- [&#45;70] -->
<g id="node15" class="node">
<title>[&#45;70]</title>
<ellipse fill="none" stroke="#000000" cx="523.942" cy="-306" rx="32.4942" ry="18"/>
<text text-anchor="middle" x="523.942" y="-302.3" font-family="Times,serif" font-size="14.00" fill="#000000">[&#45;70]</text>
</g>
<!-- mergesort([&#45;70])&#45;&gt;[&#45;70] -->
<g id="edge18" class="edge">
<title>mergesort([&#45;70])&#45;&gt;[&#45;70]</title>
<path fill="none" stroke="#000000" d="M523.942,-359.8314C523.942,-352.131 523.942,-342.9743 523.942,-334.4166"/>
<polygon fill="#000000" stroke="#000000" points="527.4421,-334.4132 523.942,-324.4133 520.4421,-334.4133 527.4421,-334.4132"/>
</g>
<!-- [&#45;70]&#45;&gt;merge([&#45;70], [&#45;41]) -->
<g id="edge21" class="edge">
<title>[&#45;70]&#45;&gt;merge([&#45;70], [&#45;41])</title>
<path fill="none" stroke="#000000" d="M523.942,-287.8314C523.942,-280.131 523.942,-270.9743 523.942,-262.4166"/>
<polygon fill="#000000" stroke="#000000" points="527.4421,-262.4132 523.942,-252.4133 520.4421,-262.4133 527.4421,-262.4132"/>
</g>
<!-- [&#45;41] -->
<g id="node17" class="node">
<title>[&#45;41]</title>
<ellipse fill="none" stroke="#000000" cx="661.942" cy="-306" rx="32.4942" ry="18"/>
<text text-anchor="middle" x="661.942" y="-302.3" font-family="Times,serif" font-size="14.00" fill="#000000">[&#45;41]</text>
</g>
<!-- mergesort([&#45;41])&#45;&gt;[&#45;41] -->
<g id="edge20" class="edge">
<title>mergesort([&#45;41])&#45;&gt;[&#45;41]</title>
<path fill="none" stroke="#000000" d="M702.5937,-360.2022C696.0232,-351.4416 687.989,-340.7293 680.8032,-331.1482"/>
<polygon fill="#000000" stroke="#000000" points="683.565,-328.9972 674.7649,-323.0972 677.9649,-333.1973 683.565,-328.9972"/>
</g>
<!-- [&#45;41]&#45;&gt;merge([&#45;70], [&#45;41]) -->
<g id="edge22" class="edge">
<title>[&#45;41]&#45;&gt;merge([&#45;70], [&#45;41])</title>
<path fill="none" stroke="#000000" d="M638.2189,-293.6228C618.3536,-283.2582 589.5236,-268.2165 565.7917,-255.8346"/>
<polygon fill="#000000" stroke="#000000" points="567.1282,-252.5842 556.6433,-251.0616 563.8902,-258.7903 567.1282,-252.5842"/>
</g>
</g>
</svg>
